<svg xmlns="http://www.w3.org/2000/svg" viewBox="0 0 1080 1080">
<defs>
    <style>
        .cls-2
        {
            fill: hsl(1110, 34%, 65%);
        }
        
        .cls-3
        {
            fill: hsl(1110, 100%, 15%);
        }
    </style>
</defs>
<path
    class="cls-2"
    d="M277.67,38.5c.61.93,1.6.76,2.49.86,9.48,1.11,18.93,2.35,28.28,4.34a227.81,227.81,0,0,1,38.37,11.79,231.13,231.13,0,0,1,85.73,60.64A228.56,228.56,0,0,1,490,249.66a252,252,0,0,1,.49,34.2,203.09,203.09,0,0,1-3.73,29.76A233,233,0,0,1,420.25,436a234.05,234.05,0,0,1-44.18,33.38A229.64,229.64,0,0,1,332.76,489,238.39,238.39,0,0,1,296,497.89a231.88,231.88,0,0,1-51.62,2.37,224.08,224.08,0,0,1-63.09-13.21A231.13,231.13,0,0,1,34,318.69c-1.87-8.75-3.12-17.58-4.25-26.43-.33-2.59-.3-5.24-.38-7.86a17,17,0,0,0-1.56-7.1V261.56a10.23,10.23,0,0,0,1.51-5.68,192.87,192.87,0,0,1,3.83-31.13A225.08,225.08,0,0,1,50.6,171.34a231.51,231.51,0,0,1,28.53-45.82A227.53,227.53,0,0,1,111,92.78a234.49,234.49,0,0,1,36.5-25.15,231,231,0,0,1,51.65-21,255.07,255.07,0,0,1,39.93-7.24c.88-.09,1.88.09,2.46-.87Z"
/>
<path
    class="cls-3"
    d="M1034.09,284.6c-.25,16.3-3.36,32.17-7.78,47.77A231.39,231.39,0,0,1,859.11,494a235.19,235.19,0,0,1-35.53,5.8,230.44,230.44,0,0,1-186.23-70.07c-31.14-32.58-51.28-71-60.1-115.24a223.73,223.73,0,0,1-4.19-55.66c2.63-49.67,19.1-94.27,50.18-133.18Q668.42,69.1,737.92,48.14a210.61,210.61,0,0,1,39.79-8c2.45-.25,4.9-.54,7.35-.8,2.9,0,5.82,0,8.73-.18,2.28-.12,4.61.18,6.83-.62h6.48c5.16.88,10.37.76,15.57.78a240.81,240.81,0,0,1,30.11,4.49,231.46,231.46,0,0,1,173.46,162.79c4.44,15.57,7.59,31.42,7.83,47.71Q1034.09,269.44,1034.09,284.6Zm-277.91-210a4.3,4.3,0,0,0,1.4-3.75,13.91,13.91,0,0,0-4.07-8.54c-.82-.78-1.3-.7-3.14.16,2.84,3.63,5.87,7.17,5.84,12.15a7.1,7.1,0,0,0-.59.64c0,.06.06.23.09.35C755.87,75.25,756,74.91,756.18,74.58Zm61.1,408.19a4.37,4.37,0,0,1,1.34.25c1.91,1.06,3.48.56,5-.82a34.83,34.83,0,0,1,3.57-2.85,8.56,8.56,0,0,0,3.67-5.57c.18-.9.51-1.94-.33-2.55a5.71,5.71,0,0,0-2.15-.48c.74-1.8,2.36-2.73,3.8-3.87a51.79,51.79,0,0,0,10.63-10.74c2.52-3.61,2.38-7.49,2.51-11.4,0-1.47-.31-3-.29-4.57a59,59,0,0,1,.74-11c.78-3.87.18-7.92,1-11.91,1-5.39.92-11,2.58-16.31a3.08,3.08,0,0,0,.07-1.8,7.19,7.19,0,0,1,0-3.13c.3-3.51,1.64-6.91,1.18-10.48a41.7,41.7,0,0,1,.22-11c.51-3.71,1.08-7.27-.11-10.91a6.54,6.54,0,0,1-.1-2.3c.11-3.3-1-6.36-1.88-9.45a4.53,4.53,0,0,0-1.81-2.59.79.79,0,0,0-1.16.32,1.9,1.9,0,0,0-.46,1.24c.48,1.79.87,3.56.14,5.38,1.21,3.18-.42,5.25-2.75,7.08a3.84,3.84,0,0,0-1.17,1.34,1.28,1.28,0,0,1-1.78.82,6.18,6.18,0,0,0-2.27,0c-.61.07-1.27.34-1.47-.46a1.43,1.43,0,0,1,.37-1.23c1.53-1,1.85-2.51,2.29-4.23.56-2.13-.21-4.79,2.33-6.41.83-.53.68-2.4-.13-3.44a11.2,11.2,0,0,1-1.6-3.75c-.87-2.57-.71-5.18-.72-7.78,0-10.48,0-21-.08-31.45,0-1.49.42-3.11-.8-4.41l-.24-3.63c-.63,1.31-1.11,2.6.27,3.61-.11,6-.21,12-.34,18a5.66,5.66,0,0,1-.38,1.76c-.21.54-.48,1.17-1.26,1.09-.55-.05-.72-.51-.82-1-.59-2.7-1.22-5.38-1.7-8.09a3.37,3.37,0,0,1,.87-3.42c.66-.58.57-1.3.37-2.11a19.35,19.35,0,0,1-1-5.38c.09-1.94,1-3.83,1.46-5.75.24-.89.44-1.79.63-2.69,1.65-7.65,3.41-15.29,3.1-23.21-.14-3.4.86-6.68,1.38-10a8.1,8.1,0,0,0,.17-3.65,21.3,21.3,0,0,1-.63-6.4,7.31,7.31,0,0,0-1.61-4.7c-.08-.11-.34-.2-.41-.15s-.49.43-.44.56c1.3,3.92.64,8,.49,11.92a11.91,11.91,0,0,1-2.5,7.69,12.19,12.19,0,0,1,0-2.86c1.37-4.39.62-8.87.69-13.31,0-2.44-1.9-3.68-4.13-2.53-2.73,1.4-6,1.43-8.4,3.64a2.84,2.84,0,0,1-1.74.46c-5.37.13-10.73.19-16.1.8-5,.56-10.09.22-15.17.9-5.76.76-11.64.65-17.47,1-9.18.61-18.43-.27-27.62.8.41-1,1.59-1.16,1.95-2.33.58-1.89,1.62-3.58,2-5.6.62-3.13,1.55-3.7,4.83-3.75,5.54-.08,11.11.16,16.63-.18,4.06-.25,8.28-.14,12-2.27a3.74,3.74,0,0,1,3.14,0,9.14,9.14,0,0,0,5.89,0,12,12,0,0,1,6-.11c-1.78,1.22-1.25,3-1.88,4.34-.28.62-.29,1.38.28,1.65,1.55.75,1.6,2.53,2.58,3.56,2.65,0,4.06-1.27,4.22-3.85,0-.14.13-.28.18-.42,1.57-5,1.57-5-3.66-5.94a26.18,26.18,0,0,1,6.34-1.62c1.5-.21,3.1-.59,3.33-2.58h0c.85-1,3.15,2.52,3.18-1,0-.19.5-.59.6-.54,1.57.72,3-.06,4.47-.35,2.91-.58,3.59-1.3,3.77-4.16a32.32,32.32,0,0,1,.08-3.69c.93-5.12,2-10.21,1.8-15.46A4.89,4.89,0,0,1,823,210c1.62-6.19,0-12.56,1.07-18.78-.66-5.67-.24-11.37-.37-17.05a8.36,8.36,0,0,1,.63-3.61,1.91,1.91,0,0,0-1-2.68,11.93,11.93,0,0,1-4.21-3.47c-1.21-1.62-2.43-1.14-3.3,1-.27.68-.77,1.27-1.08,1.93a1.11,1.11,0,0,0,.12.88.82.82,0,0,0,1.18.25c2.51-1.24,3.4-1.18,5.15.44a1.21,1.21,0,0,1,.26,1.66c-.48.67-1.16,1.16-1.91.46-1.07-1-1.78-1.11-2.27.47-.22.68-.88,1.15-1.35.51-1.4-1.87-2.05.2-3.07.55a15.12,15.12,0,0,0-.72-5.09,1.89,1.89,0,0,1,1.14-2.62c1.46-.75,1.75-1.6.92-2.71s-1.69-1.82-1.29-3.23c.16-.59.7-1.51,1.07-1.17,1.48,1.31,2.68-1.48,4.17-.11.37.35,1.4-1.33.84-1.61-2.25-1.13-2.69-5.11-6.35-4.05-.32.09-.85-.31-1.2-.58-.86-.65-1.67-1.35-2.5-2-.4-.34-.57-.86-.2-1.18s1.13-.81,1.59-.7c.84.19,1.3,1.32,2.36,1.23a5,5,0,0,0,.23.89,1.28,1.28,0,0,0,1.9.65,1.13,1.13,0,0,0,.52-1.57c-.39-.8-1.07-.17-1.62-.17-.31,0-.61.06-.92.09,0-.62,0-1.23,0-1.85,0-.31,0-.62,0-.92.07-.83.37-1.5,1.3-1.62.74-.09,1.09.43,1.32,1s.57,1.25,1,.22a3.1,3.1,0,0,1,1.58-1.51c1.21-.67,1.2-1.09-.12-1.73a7.9,7.9,0,0,1-2.06-1.77c-1.71-1.68-2.34-3.05-1.6-3.34,1.26-.48,2.3.5,3.44.75.63.14,1.1,1,1.64,1.53.32.33.71.73,1.15.37a1.74,1.74,0,0,0,.59-1.13,25,25,0,0,0-.06-3.67c0-.53-.57-.56-1.07-.36a10.27,10.27,0,0,1-1.27.33c-.12-2.09-3.19-1.88-3.17-4.11,0-.81-.73-1.3-1.1-1.94-.9-1.59-1.89-3.22-1.44-5.18a1.64,1.64,0,0,1,.81-1c.67-.32.67.36.75.75a14.88,14.88,0,0,0,.38,2.25,1.39,1.39,0,0,0,1.13.58c.38,0,.76-.41,1.11-.67.1-.07.08-.29.13-.44.85-2.68-2.14-4.7-1.28-7.39,0-.08-.16-.26-.29-.34-1.65-1.11-3.13-2.51-5.17-2.94-1-.23-2.08-.51-3.13-.75-3-.66-6-1.74-9-1.89-6.44-.31-12.88-.41-19.33-1-5.5-.46-11.07-.16-16.61-.19-2,0-4,0-6,0H750a22.59,22.59,0,0,0,7.11-14.5,5.84,5.84,0,0,0-1.94,3.07,15.42,15.42,0,0,1-4.94,7.64c-3.65,2.83-7.65,5.14-12.34,5.52-3.21.26-6.41.62-9.6,1.06-2.42.34-4.85.63-7.28.94l-.06-.07a2,2,0,0,1,1-1.81,3.77,3.77,0,0,0,1.8-1.85c.27,0,.54-.06.8-.12s.34-.14.33-.19c0-.35-.28-.47-.58-.27a4.25,4.25,0,0,0-.55.57,12.48,12.48,0,0,0-5.39,1.12,15.2,15.2,0,0,1-5.9.83c-1.36,0-2.46-.33-2.62-2a3.66,3.66,0,0,0-2-2.9,3.34,3.34,0,0,1-1.7-3.07c0-.94-.11-1.9-1.17-2.29-1.23-.45-1.42-1.42-1.53-2.56a13.87,13.87,0,0,1,2.2-9.24,7.32,7.32,0,0,0,1.17-1.95,2.57,2.57,0,0,0-1-2.43c-.53-.53-1.16-.21-1.64.21a2.15,2.15,0,0,1-3.26,0,2.29,2.29,0,0,0-1.23-.54,1.61,1.61,0,0,0-1.23.37c-.31.4.09.76.48,1,1.7,1.26,1.71,1.28.66,2.64-2.37,3.08-4.5,6.25-4.47,10.37a2.61,2.61,0,0,1-.49,1.73c-1.64,1.64-1.35,3.67-1.37,5.65,0,1.39.33,2.94-.17,4.13-1.43,3.39-.05,5.22,2.93,6.46.1,0,.13.24.21.4-.46,1.29-2,1.29-2.77,2.28a16.24,16.24,0,0,1-2.47,2.7,3.73,3.73,0,0,0-1.42,3.22c0,2.77,0,5.55,0,8.32a88.29,88.29,0,0,0,1.63,18.33c.77,3.71,1.58,7.52,1.23,11.42a12.43,12.43,0,0,1-1.07,3.41c-.52,1.33,1.61,2.07,1.79,3.51a17.76,17.76,0,0,1,.5,4.11c-.5,4.35.68,8.51,1.14,12.74.25,2.26,1.05,4.57-.81,6.59-.18.2,0,.86.18,1.23,1.4,2.91,2.53,5.84,1.94,9.2a6.94,6.94,0,0,0,.25,3.2,20.24,20.24,0,0,1,.66,6.87c-.12,4.19.76,8.25,1.44,12.32.32,1.91,0,4.06,1.52,5.71.21.24.09.89,0,1.31a4.41,4.41,0,0,0,.87,3.87c1.27,1.89,1.09,2.3-1.27,3.22a114.73,114.73,0,0,0-10.36,5c-3.13,1.61-5.54,3.84-5.86,7.63a87,87,0,0,1-1.12,10,9,9,0,0,0,.27,2.74c.58,4.71,1.56,9.37,1.52,14.15a45.45,45.45,0,0,0,.32,6.91c.74,4.84,2.41,9.48,2.9,14.4.31,3.24.83,6.39-.08,9.59a8.46,8.46,0,0,0-.3,2.74c.34,4.59.55,9.2,1.23,13.75a45.62,45.62,0,0,1,.68,5.93,12.84,12.84,0,0,0,.58,4.55c.58,1.53-.23,2.68-1.43,3.56a6.36,6.36,0,0,1-1.6.91,11.6,11.6,0,0,0-5,4,30.67,30.67,0,0,0-4.89,7.23,8.88,8.88,0,0,1-1.85,3.18c-1.74,1.56-1.66,3.44-1.72,5.47-.16,5.41,1.22,10.69,1.26,16.08,0,1.65-.15,3.36.55,5,.94,2.17.89,4.5.95,6.81.05,1.84-.17,3.7.4,5.52.13.41.23,1.15,0,1.29-1.57,1.07-1.72,3.5-3.35,4.16-2.71,1.1-4,3.23-5.3,5.51-.71,1.22-1.62,1.2-2.56.16-1.3-1.45-1.52-3.34-2.19-5a1.92,1.92,0,0,0-1.75-1.23l-.16-.17c0-.77,0-1.54,0-2.31s0-1.56-.9-1.94a2.62,2.62,0,0,0-3,.69,6.08,6.08,0,0,0-1.51,3.79c0,.63.44,1.51-.58,1.87-1.32-1.72-1.32-1.72-2.67-1.14s-2.09.33-2.33-.91c-.18-.9-.12-1.86-.37-2.73a1.21,1.21,0,0,0-1.52-.72,1.68,1.68,0,0,0-1.32,2.4,20.64,20.64,0,0,1,1.18,1.95c.22.56.1,1.41-.72,1.32-2.06-.23-2.75.76-2.88,2.63a21.54,21.54,0,0,1-.69,2.65,1.51,1.51,0,0,0,2,1.7,4.5,4.5,0,0,0,1.63-.79,3,3,0,0,1,3.8-.47,8.73,8.73,0,0,0,2.23.44c.61.13.63.87.19,1.43-.85,1.08-1.83.77-2.91.51s-2.1-.09-1.91,1.57c.08.78-.68.78-1.34.76-2.36-.08-2.71.28-2.93,2.29a5.37,5.37,0,0,0,1.73,4.53c3.79,4.07,8.13,7.55,12.14,11.37.39.37.76,1,1.75.2-1.56-2.81-1-5.81-.13-8.8a47.71,47.71,0,0,1,3.44-8.53,4.13,4.13,0,0,1,1.47-1.7c1.43-.84,1.81-2.46,2.92-3.54s2.92-.87,3.33-2.73c.08-.39,1.29-1.11,1.83-.09.68,1.28.81.92.94-.17.06-.45.11-1.07.66-1.06a1.31,1.31,0,0,1,1,.77c.47,1.89.44,4,1.37,5.64.72,1.25.46,2.24.64,3.37s1.3,2,1.8,3.12a2.36,2.36,0,0,1-.24,2.63c-.85.86-.44,1.24.34,1.66a4.52,4.52,0,0,1,.77.52c1.14.94,1.14,1.69,0,2.52a10.67,10.67,0,0,1-1.56.75c.44.36,1,.64,1.24,1.1.15.29-.24.84-.39,1.27-.4.19-.46.35-.16.41.05,0,.16-.21.24-.33a20.84,20.84,0,0,1,2.64-.76,1.8,1.8,0,0,1,1.18.52.87.87,0,0,1,.1,1.23c-2.12,2.82-4.15,5.72-6.47,8.38-.88,1-2.21,2.4-3.93,1.05-.51-.41-.75-.22-1,.2a3.12,3.12,0,0,0-.63,2.16,1.79,1.79,0,0,0,1.12,1.37c.75.28,1.07-.17,1.26-.85s.55-.91,1.32-.88c3,.1,6-.21,8.23-2.19,1.88-1.63,4.56-1.67,6.22-3.61a1.06,1.06,0,0,1,1.58.38,1.46,1.46,0,0,1-.22,1.27c-2.33,2.7-4.82,5.27-8.38,6.29a3.94,3.94,0,0,0-2.94,3.69c-.23,1.67,1,2.49,2.21,3.23,4.65,3,9.2,6.1,14.61,8.31.28-2.51,1-4.59,3.58-5.48,1.2-.42,2.27-1.31,2.09-2.71s-1.6-1.21-2.57-1.59a3.18,3.18,0,0,1-.4-.23,1.26,1.26,0,0,1,0-2.22c1.34-.9,3.34-.93,3.83-3.06,1,1.12,2,2.1,2.88,3.16a4,4,0,0,1,1.16,1.93c.06,2,.88,3.91.41,5.91-.67,2.88.5,5.12,2.42,7.09s4,3.86,5.86,5.91a15.55,15.55,0,0,0,6.07,4.09c2.59,1,5.16,2,7.76,3a227.72,227.72,0,0,0,41.05,10.51c2.88.47,5.79.7,8.69,1.08,6.4.83,12.6-.53,18.65-2.25s12.29-3.72,17.72-7.31a4,4,0,0,1,2.68-.46c-.05,1.9-1.28,3.6-.93,5.57l-.19.31ZM958,369.86a2.86,2.86,0,0,0-.55-.64c-.31-.21-.57-.07-.62.3,0,.07.2.22.33.25s.56.05.85.08a6.51,6.51,0,0,0,.12,1.83c.86,2.45,1.78,4.82.8,7.52a3.85,3.85,0,0,0,.68,3.09,10.52,10.52,0,0,1,1.18,6.25,6.13,6.13,0,0,0,.35,3.17c1.35,2.82,3.08,5.34,6.11,6.54a48.38,48.38,0,0,1,7.36,3.81c2.22,1.36,2.6,1.24,4.19-.74a184.43,184.43,0,0,0,16.41-25.07,4.53,4.53,0,0,0,.23-1.39,21.93,21.93,0,0,0-3.08-1.1,21.3,21.3,0,0,0-3.21-.18,15,15,0,0,1-3.22-.14c-4.73-1.28-9.57-2.33-14.09-4.15a10.35,10.35,0,0,0-8.44-.12A10.91,10.91,0,0,1,958,369.86Zm-364.8-66.75A1.78,1.78,0,0,0,591.5,305a25.56,25.56,0,0,1-1,6.8,15.35,15.35,0,0,0,.15,8.15c1.14,3.66,1.86,7.45,2.9,11.14a216.68,216.68,0,0,0,10.18,27.7,9.7,9.7,0,0,0,1.44,2.34,2.5,2.5,0,0,0,3.65.37c1.54-1.25,3.14-.94,4.8-.73a.91.91,0,0,1,.68,1.05c-.07.75-.32,1.49-.39,2.24a.85.85,0,0,0,.5.63,1,1,0,0,0,.84-.16,2.53,2.53,0,0,0,.81-1.07,1.92,1.92,0,0,0,0-1.34c-.95-1.77.11-2.52,1.46-3.19.34-.17.82-.31.53-.94l-3.71-.27c1.24-1.43.81-3,1-4.48.54-4.76.28-9.47-1.93-13.87a1.77,1.77,0,0,1,.15-2.13,3.71,3.71,0,0,0,.65-4.28,8.8,8.8,0,0,1-.48-3.63,16.65,16.65,0,0,0-.17-3.68c-1-3.85-1.1-7.9-3-11.52a4,4,0,0,1,.34-4.36,6.13,6.13,0,0,0,.12-7,14.6,14.6,0,0,1-2.1-7.38,19.2,19.2,0,0,0-.74-3.6c-1.05-5.27-2.06-10.53-1.85-15.95,0-1.38,0-2.77,0-4.16s-.26-2.75-1.64-3.56a2.39,2.39,0,0,1-1.13-2.37c.09-2-.79-3.91-1.16-5.86a1.15,1.15,0,0,0-1.35-1c-.8.12-.9.73-.8,1.36.34,2.12.76,4.22,1.08,6.34a.93.93,0,0,1-1,1.16c-.46,0-.94-.14-1.07-.68a6.22,6.22,0,0,1-.21-1.35c0-3.35-.33-6.63-2.06-9.64-1.13-1.94-.78-4.2-1.18-6.31-1.19-6.32-2.9-12.54-3.44-19a58.36,58.36,0,0,0-1.25-6.77,1,1,0,0,0-.64-.57.75.75,0,0,0-.61.41,12.79,12.79,0,0,0-.82,6.8c1.29,7.55,2.72,15.07,4,22.62.35,2.06,1.25,4.13.42,6.29l-.11.12c-2.82-.64-3.48-1.17-3.68-3.76-.4-4.93-2-9.66-2-15.67a14.91,14.91,0,0,0-1.08,2.66c-.58,4.42-1,8.86,0,13.28a8,8,0,0,1,0,5,7.61,7.61,0,0,0,0,5.38,24.31,24.31,0,0,1,1.29,7.68c-.11,2.31-.14,4.6,1.24,6.68a3.86,3.86,0,0,1,.46,2.21c-.12,2.07.85,3.89,1.15,5.86a4.94,4.94,0,0,0,1.2,2.43c.7.78,1.65,1.54,2.74.39a1.93,1.93,0,0,1,1.68-.57c.42,0,1.13.21,1.19.45.47,1.89.82,3.81,1.15,5.73,0,.14-.38.43-.64.53a1.3,1.3,0,0,0-.94,1.38,9.42,9.42,0,0,1-1.22,5.32,6.81,6.81,0,0,0-.66,3.58v4.42a7.1,7.1,0,0,1-1.76-4.89c0-1.54,0-3.08,0-4.61a2.59,2.59,0,0,0,1.76-2.42,11.23,11.23,0,0,0-.26-3.58c-.28-.87.65-2.41-1-2.56-.54-.05-2.09,3.11-1.95,3.67s.32.85.44,1.29C592.59,300.78,592.87,302,593.17,303.11Zm317.9-101.77v0h35.11c5.7,0,11.4,0,17.1,0,1.76,0,3.41-.22,4.58-1.67,3.39-4.17,6.77-8.35,10.1-12.57a3.47,3.47,0,0,0,0-4.66c-3.07-3.84-6.21-7.61-9.26-11.46a7.4,7.4,0,0,0-6.42-2.84c-9.24.1-18.48,0-27.72,0l-44.81,0c-10,0-20,0-30,0a6.15,6.15,0,0,0-5.26,2.25c-2,2.49-4.15,4.94-6.18,7.44a45.5,45.5,0,0,0-3,4c-1.6,2.5-1.39,4.43.5,6.71.89,1.06,1.68,2.2,2.6,3.22,1.94,2.18,3.5,4.65,5.49,6.82a8.37,8.37,0,0,0,6.91,2.79C877.49,201.28,894.28,201.34,911.07,201.34Zm-279.39,179a5,5,0,0,1-.76-1,3.34,3.34,0,0,0-3.66-2.1,10.92,10.92,0,0,1-5-.72,2.24,2.24,0,0,0-2.76,1.12,8.42,8.42,0,0,0-.79,1.66,1,1,0,0,0,.06.85.69.69,0,0,0,1.15,0c1.2-1.3,2.39-1.71,3.95-.41.49.4,1.48.24,2.24.26,1.77,0,2.75.91,2.08,3.11-.18.59-.52,1.12-.74,1.69-.55,1.42-2.39,1.52-2.94,2.8s.69,2.75-.88,3.76a1.53,1.53,0,0,0-.5,1.2,4.19,4.19,0,0,0,6,3.61c.82-.39,1.56-1,2.4-1.29,1.09-.41,2.08.44,3.13.45,1.46,0,1-2.15,2.53-2.32,2.56-.27,4.59-2.5,7.4-2.09a2.78,2.78,0,0,0,1.65-.7,5,5,0,0,1,6,0c1.2.78,1.55.56,2-.62,1.27-3.22,1.27-3.21,4.58-2.83.42,0,.85,0,1.55.09-.92-3.59-.56-7.1-.54-10.58,0-3.26-1-6.34-1.23-9.55-.13-1.8-1.47-2.46-3.35-2.4a3.38,3.38,0,0,0-2.75,1.44c-.81,1.1-1.48,2.3-2.2,3.44,2,2.08,2.1,2.13,1,4.15a6,6,0,0,0-.63,3.57c.1,1.05.51,2.07.69,3.12.46,2.77,0,4.11-2.82,4.81a18.1,18.1,0,0,1-3.59.7c-4.12.14-5.21-.58-6.23-4.48-.23-.88-.1-1.85-.33-2.74a3,3,0,0,0-1-1.46,1.39,1.39,0,0,0-1.26-.08,1.64,1.64,0,0,0-.67,1c-.06.23.21.56.35.82.34.62.38,1.2-.46,1.33C634.23,380.18,633,380.23,631.68,380.34ZM881.1,343.19c0-1.18,0-1.64,0-2.1-.17-1.9-1.19-2.64-3.14-2.3a29.9,29.9,0,0,1-3.61.61c-2,.1-4-.06-6,0a3.41,3.41,0,0,0-3.63,3.38,17.9,17.9,0,0,0,.26,5.95c.67,2.22-.05,3.83-1,5.65-.65,1.26-1.74,1.59-2.84,2.11a1.42,1.42,0,0,0-.48,2.31,40.52,40.52,0,0,0,3,4,5.63,5.63,0,0,1,1.85,4.52,2.21,2.21,0,0,0,.65,2.11c1.23.87,2.24,2.11,3.94,2.22,4.18.27,6.7,2.7,8.13,6.46.19.5.14,1.37,1,1a1.49,1.49,0,0,0,.67-1.1c.13-1.22.14-2.45.16-3.68.06-2.89.43-5.79-2-8.14-.83-.79-.11-1.5.85-2.08,1.35-.83,1.36-1.47.46-2.51-.2-.23-.47-.4-.69-.62-1.24-1.26-2.26-1.32-3.45-.13a3.13,3.13,0,0,0-.67,1.18c-.24.68-.72,1.06-1.37.87a5.07,5.07,0,0,0-3.15-.22,1.57,1.57,0,0,1-1.25-.26,8.74,8.74,0,0,1-3.3-4.87A3.61,3.61,0,0,1,867,354a1.73,1.73,0,0,1,2.47,0c.83.62,1.32.38,1.62-.6.35-1.14,1.31-1.17,2.26-1s1.16.86,1.31,1.67a5.35,5.35,0,0,0,.56,1.72c.6,1,2.15,1.41,3.75,1,1.13-.3,1.22-1.24,1.25-2.18s-.06-1.86,0-2.77c.18-1.55-1.13-2.5-1.43-3.78-.38-1.6,2.06-1.73,2.13-3.28C881,344,881.09,343.24,881.1,343.19ZM654.31,302.31c-.22-4.74.07-9-.78-13.3a56.2,56.2,0,0,1-1.08-7.26c-.26-3.82-.51-7.66-1.14-11.43-.35-2.13-.66-4.24-.87-6.38-.17-1.77-1.52-2.24-3-1.11a2.47,2.47,0,0,0-1.16,1.89,11.44,11.44,0,0,0,.15,2.75,63.89,63.89,0,0,1,1.68,13.65c.05,3,.17,6.11,2.19,8.68a1.86,1.86,0,0,1,.21,1.76c-.82,2.72.64,5.06,1.23,7.54.06.25.37.6.57.61C653.93,299.79,653.23,301.42,654.31,302.31ZM869.64,409.73a2.91,2.91,0,0,0,2.18,3.45c.58.19,1.42.11,1.58-.55.91-3.56,3.17-7,.68-10.86-.45-.69-.28-1.78-.35-2.7a3.34,3.34,0,0,0-.55-2.17,2.14,2.14,0,0,0-1.11-.67.82.82,0,0,0-1,.77c0,3.39-1.53,6.58-1.13,10A10.61,10.61,0,0,1,869.64,409.73ZM632.25,291.79a10.13,10.13,0,0,0,1.19,6,52.75,52.75,0,0,0,4.23,7.65,9.62,9.62,0,0,1,1.89,6.46c-.17,2.21.73,4.2,1.32,6.25,0,.16.55.32.75.25s.53-.49.48-.67c-.82-2.85-.61-5.78-.69-8.68a5,5,0,0,0-.61-2.18c-1.6-3.12-3.33-6.17-4.74-9.4-1.05-2.4-2.41-4.57-2.16-7.33.08-.8-.72-1.48-1-1.11a2.58,2.58,0,0,0-.59,1.12A8.77,8.77,0,0,0,632.25,291.79ZM850.62,399.12c0,1.26,0,2.18,0,3.08.06,1.28.35,1.64,1.67,1.36a3.18,3.18,0,0,1,2.5.5c1.9,1.12,3,.4,3.26-1.77s-.83-3.48-2.28-4.69c-1.24-1-2.18-3.11-4-2.53C849.65,395.73,851,398,850.62,399.12Zm83.21-18h0c0-.76,0-1.52,0-2.28-.09-2-1-2.7-2.9-2.43a4.3,4.3,0,0,0-2.69,1.56c-.44.5-.7,1.14-.18,1.62,1.64,1.49,1.41,3.22.77,5-.32.89-.68,1.82.28,2.44.67.44,1.43.06,2.16-.24a3.59,3.59,0,0,0,2.54-3.86C933.8,382.36,933.83,381.75,933.83,381.14ZM795,65.38c-1.25-2.49-.6-5-1.31-7.38,0-.18-.45-.28-.7-.36-.08,0-.29.13-.31.22A42.8,42.8,0,0,0,791.47,65c0,2.16-.36,3.84-2.24,5.06-.3.19-.38.8-.44,1.24s.3,1,.73.94c1.46-.25,3.07-.35,3.86-2S793.42,66.62,795,65.38Zm63,324.46c0-.46.07-.92.07-1.38-.06-3.28-1.57-4.76-4.84-4.66a1.67,1.67,0,0,0-1.11.57c-.35.43,0,.83.35,1.17.72.77,1.81,1.63,1,2.71-1.16,1.48-.19,2.24.68,3.07s1.65,2.07,3.09,1.4C858.4,392.14,857.79,390.83,858,389.84Zm3.31,30.69a8.29,8.29,0,0,0,1.4-.64,1.17,1.17,0,0,0,.37-1.6,9.53,9.53,0,0,1-1.44-3.27c-.2-1.19-1.85-2.1-3.1-2s-2.51,1.94-2,3C857.42,418.28,859.77,418.94,861.28,420.53ZM651.61,345a8.8,8.8,0,0,0-.21-1.83,1.44,1.44,0,0,0-.93-.82,1.48,1.48,0,0,0-1.21.29c-1.63,1.7-1.69,3.76-1.09,5.88a1.25,1.25,0,0,0,1.07.56C651,348.85,651.61,347.84,651.61,345Zm223.61,87.76c-.62-1.83-.34-4-1.8-5.74a.9.9,0,0,0-.78-.19.86.86,0,0,0-.54.59,7.65,7.65,0,0,0,1.88,5.75c.14.15.56.1.83.07C874.92,433.24,875,433,875.22,432.76ZM819.8,125.08c-1,1.26-1.93,2.27-2.75,3.33a2.2,2.2,0,0,0,.86,3.08,1,1,0,0,0,.78-.13C819,129.37,820.53,127.56,819.8,125.08ZM620.87,385.32a2.88,2.88,0,0,0-1.17-2.4,1.1,1.1,0,0,0-1.59-.16,1.43,1.43,0,0,0-.45,1.64,2.48,2.48,0,0,0,2.39,1.73A.81.81,0,0,0,620.87,385.32ZM775,68a2,2,0,0,0,2.07-1.37c.08-.68-.41-1.07-1.09-1.14-1.15-.12-2,.38-2,1.25A1.19,1.19,0,0,0,775,68ZM776.4,80.5a1.29,1.29,0,0,0-1.22-1.13A1.27,1.27,0,0,0,774,81a1.1,1.1,0,0,0,1.39.83C776.12,81.69,776.35,81.15,776.4,80.5Zm-87.15,20.87c-.13-.09-.28-.27-.37-.24a1.45,1.45,0,0,0-1,1.37,2.08,2.08,0,0,0,.18.84.41.41,0,0,0,.31,0A2.61,2.61,0,0,0,689.25,101.37Zm70.2-10a2.71,2.71,0,0,0,0-3.11A2.74,2.74,0,0,0,759.45,91.41Zm-66.71,10.44c.07-.25.27-.56.18-.73a.8.8,0,0,0-.68-.34c-.36,0-.46.38-.2.66A2.53,2.53,0,0,0,692.74,101.85Z"
/>
<path
    class="cls-3"
    d="M27.77,774.33a1.19,1.19,0,0,0,1.15-1.18c.18-1.68.35-3.37.49-5.06,4-48.45,21.16-91.64,52.08-129.15C111.12,603,148.39,578.23,193,564.58a229.12,229.12,0,0,1,38.84-8.12,220.57,220.57,0,0,1,41.09-1.37c50.32,3.16,95.2,20.5,134.1,52.67q51.94,43,72.77,107.22a230.56,230.56,0,0,1,9.27,41.9,221.93,221.93,0,0,1,1.36,43.86c-3.23,46.78-18.89,89-47.65,126.13q-44.33,57.23-113.45,79.32a235.26,235.26,0,0,1-78.41,10.55A231,231,0,0,1,29.31,802.32c-.1-1.38-.32-2.75-.52-4.12-.08-.55-.58-.63-1-.73Zm274.92-76.85a6.29,6.29,0,0,0,.05.86c0,.12.16.34.23.33.37,0,.52-.3.32-.62a2.89,2.89,0,0,0-.65-.53c0-1.29,1.07-2.66-.46-3.81-.79-.6-.81-1.46-.69-2.49a5.56,5.56,0,0,1,2.07-3.91c.18-.15,3.22-4.35,3.31-4.53a16,16,0,0,1,.86-1.64c.34-.51.88-1.11,1.48-.87s1,.88,1.7,1.54c-.49-4.21,1.51-6.95,4.46-9.27a2,2,0,0,1,2.47-.41c1.37.68,2.71,1.43,4.39.79.83-.32,1.39.45,1.92,1,1.71,1.76,2.75,4.09,4.69,5.68a4.59,4.59,0,0,1,1.69,4.09c-.13,2.13,1,3.84,2.06,5.52a.84.84,0,0,0,.78.18,1,1,0,0,0,.52-.64c.14-2.94.36-6-1.11-8.6a49.15,49.15,0,0,1-5.19-13.69c-.71-3.3-1.93-6.49-2.52-9.8a58.56,58.56,0,0,0-2.84-10.17,33,33,0,0,1-2.11-8.46,28.74,28.74,0,0,0-2.28-7.93c-1.57-3.8-4-7.24-4.22-11.56a3.22,3.22,0,0,0-.55-1.27,12,12,0,0,1-1.17-3.94,33.62,33.62,0,0,0-1.66-6.64,24.34,24.34,0,0,1-1.08-3.46,78.51,78.51,0,0,0-2.49-9.32c-1.32-3.71-3-7.3-4.57-10.92s-2.74-7.48-4-11.26a2.27,2.27,0,0,0-1.8-1.79c-2.56-.61-5.17-.8-7.76-1.15a134.22,134.22,0,0,0-17-1.62c-8-.06-16-.11-24.06.07a111.73,111.73,0,0,0-13.79,1.08c-6.53.95-13,2-19.52,3.34A217.7,217.7,0,0,0,167,587.42a209.92,209.92,0,0,0-21.15,11.39,221.52,221.52,0,0,0-57.55,50.83A221.51,221.51,0,0,0,74.41,669.2a227.7,227.7,0,0,0-14.83,27.68,208.84,208.84,0,0,0-10.3,28.18,214.73,214.73,0,0,0-6.72,33c-.63,5.34-1.32,10.71-1.5,16.05-.34,10.15-.65,20.32.52,30.48.63,5.5,1.2,11,2,16.48a201.47,201.47,0,0,0,7.45,31.41,220.2,220.2,0,0,0,52,86.3q7.59,7.79,15.89,14.81c3.41,2.87,6.85,5.73,10.48,8.32,5.14,3.66,10.25,7.38,15.72,10.56,6.27,3.63,12.44,7.43,19,10.51,6.83,3.2,13.74,6.23,20.85,8.81a217.5,217.5,0,0,0,29.28,8.32,172.69,172.69,0,0,0,18.66,3c6,.58,11.9,1.59,17.91,1.55,9.24,0,18.47.37,27.72-.68,4.11-.47,8.29-.72,12.38-1.33a233.92,233.92,0,0,0,28.39-6.06,213.86,213.86,0,0,0,58-26A207,207,0,0,0,408,946.93c2.91-2.75,5.7-5.62,8.77-8.21a46.05,46.05,0,0,0,5.51-6.21,2.63,2.63,0,0,0-.36-3.74,24.23,24.23,0,0,0-2.25-1.62c-2.89-2-5.74-4.15-8.69-6.1-1.91-1.28-3.32-2.65-3-5.21a4.28,4.28,0,0,0-.59-2.65c-1.13-1.68-1-3.5-1-5.35,0-5.7,0-11.41,0-17.12a25.38,25.38,0,0,0-.19-4.62,47.56,47.56,0,0,1-.09-17.44,5.9,5.9,0,0,0,0-2.29,46.1,46.1,0,0,1-.76-6,9.46,9.46,0,0,0-4.25-7.33,11.21,11.21,0,0,1-2.54-2,20.87,20.87,0,0,0-8.33-5.66c-1.7-.71-3.43-1.35-5.12-2.09-3.25-1.42-6.47-2.87-9.69-4.34-1.59-.73-3.18-1.3-4.83-.29-2.61,1.59-5.6,2.16-8.42,3.19-1,.38-2.32,1.48-3.39.25-.81-.94.32-2,.28-3.07-.06-1.54,0-3.09,0-4.63,0-1.1,0-2.28.84-3,2.3-2,2.11-5,3.07-7.54a4.13,4.13,0,0,0,.06-1.79c-.52-5.19-1.46-10.35-1.18-15.6a11.18,11.18,0,0,0-.16-2.31,172.16,172.16,0,0,1-1.48-19.76c-.21-5.24-.82-10.43-1.18-15.65-.38-5.44-7.8-10-12.78-7.56a7.21,7.21,0,0,1-3.52,1,6,6,0,0,0-3.87,1.34,7,7,0,0,1-4.75,1.36,18.71,18.71,0,0,0-5.08.1c-3.76,1-6.55-.62-9.21-2.87l-1.07-.88a3.1,3.1,0,0,0-3.46-.61c-1.61.81-3.27.62-4.95.7a25.21,25.21,0,0,1-8.2-1c-1.47-.43-2.92-1-4.27.42a2.21,2.21,0,0,1-2.19.32,24.38,24.38,0,0,1-3.55-1c-1.58-.69-2.93-.74-4.27.46a1.83,1.83,0,0,1-2.15.08,8.25,8.25,0,0,0-2.56-1c-1.61-.16-3.47-.75-4.67,1s-2.72,1.7-4.42.81a9,9,0,0,0-2.13-.9c-1.46-.35-2.84-1.52-4.43-.82-1.26.55-1.06,2.15-1.85,3.08-.1.11-.15.27-.25.38a1,1,0,0,1-1.61.2c-1.17-1.2-2.23-2.51-3.16-3.57-2.08.22-3.05,1.86-4.75,1.68-.61-.06-1.07.47-1.35,1.09-1.12,2.49-3,2.84-5.32,1.77-.27-.13-.61-.12-.9-.23-1.12-.41-2-.49-2.44,1-.1.36-.62.63-1,.9-.55.41-1.41.18-1.47-.39-.11-1.07-.06-2.17-.26-3.22s-1.9-1.09-1.88-2.43c.86-.88,2.09-.24,3.05-.74.33-.18.51-.43.33-.76a1,1,0,0,0-.63-.5,4.18,4.18,0,0,0-1.36.15c-1.49.34-3,.75-4.47,1.08-.73.17-1.11-.36-1.43-.9a1.51,1.51,0,0,1-.09-1.72,1.84,1.84,0,0,1,2-.71c.21.37.37.42.4.14,0-.06-.21-.15-.32-.22.26-1.62-1-2.79-1.38-4.14,1.9-1.57,3.46-3.24,5.81-3.93a10.42,10.42,0,0,0,3.05-2.05,1.45,1.45,0,0,0,.6-1.63c-.29-.82-.9-.5-1.47-.29-1.44.53-2.88,1.1-4.34,1.55-.69.21-1.17-.18-1.24-.93-.13-1.44.35-2.24,1.55-2.36,1.38-.13,2.77-.12,4.15-.24.42,0,.94-.19.81-.84s-.55-.65-1-.67c-1.08,0-2.16,0-3.23-.08-1.32-.12-3,.53-3.82-.84s1-2.05,1.21-3.27c.14-1,.16-2.2,1.52-2.59.25-.07.44-.37.65-.56-.34-.28-.67-.78-1-.8-2.46-.14-4.93-.13-7.39-.26a2.69,2.69,0,0,1-2.82-2.51c-.34-1.67-.05-2.13,2.09-3.42,1.41-.85,1.79-1.47.94-2.5-1.9-2.32-1.33-4.95-1.36-7.53,0-2.87,1.71-4.87,3.55-6.73a16.44,16.44,0,0,0,2.71-3.67c1.69-3,3.86-5.52,7.33-6.63a12.33,12.33,0,0,0,3.89-2.43,29.81,29.81,0,0,0,5.65-6,5.28,5.28,0,0,1,1.83-2c2.76-1.34,5.54-2.68,8.33-4a3.44,3.44,0,0,1,2.68-.12c2.17.76,4.39,1.38,6.6,2a9.86,9.86,0,0,1,6,4.8c.61,1.07,1.21,2.15,1.91,3.15.2.29.74.35,1.12.52A5.42,5.42,0,0,0,284,694c.12-.59.13-1.38.87-1.37a3.43,3.43,0,0,1,1.62.76c.22.15.28.53.45.78,2.41,3.45,4.79,4.27,8.93,3.56C298.11,697.32,300.4,696.83,302.69,697.48Zm120.88,16.76c-.92,5.21-.82,5.51,1.29,8.48a3.52,3.52,0,0,0,3.07,1.7c2.61,0,5.24.36,7.75-.76a2.47,2.47,0,0,1,2.65.21c1.86,1.55,4.12,2,6.36,2.5a1.57,1.57,0,0,1,1.27,1.18c1.3,4.89,2.84,9.73,3.82,14.68a90.67,90.67,0,0,0,2.39,9.82,84.93,84.93,0,0,1,2.54,9.8,22.84,22.84,0,0,0,2.53,7.82,20.16,20.16,0,0,1,3,11.89,5.31,5.31,0,0,0,.78,3.55c1.25,1.72.52,4,1.74,5.66s1.51,3.72,1.85,5.63a146.91,146.91,0,0,0,4.63,18.28,25.64,25.64,0,0,1,1.17,7.26c.06,3.56,1.64,6.69,2.95,10.06a5.09,5.09,0,0,0,1.27-2.76c.57-4.41,1.66-8.74,2.17-13.18.72-6.26,1.63-12.49,1.68-18.82a58,58,0,0,1,.57-9.66,24.37,24.37,0,0,0-.14-5.52c-.08-1.22-.36-2.44-.36-3.66A178.7,178.7,0,0,0,476.71,755a195.13,195.13,0,0,0-6.24-29.27,217.75,217.75,0,0,0-23.55-54c-1.22-2-2.29-4-5-4.19-.53,0-1-.62-1.55-1a9.74,9.74,0,0,0-5.72-1.47c-4.74.08-7.31,2.38-7.91,7.21-.09.75.13,1.55-.44,2.18-.15.07-.28.18-.41.18a5.74,5.74,0,0,1-.92,0c-4.59-.54-8,1.66-11,4.81a6.39,6.39,0,0,0-1.65,6c.52,2.41,1.17,4.81,3.09,6.59a11.54,11.54,0,0,1,1.27,1.35c1.25,1.55,1.21,2.47-.25,4-.73.79-1.57,1.48-2.31,2.27-2.79,3-3.14,9.14-.69,12.39a5.87,5.87,0,0,0,2.49,2A9.83,9.83,0,0,0,423.57,714.24Zm-69.05-9.63c0,2,0,4,0,6,0,1.07.78,1.59,1.87,1.58,3.19,0,5.31-2.13,7.56-3.95a1.19,1.19,0,0,0,.35-.83c0-2.23.81-4.71-1.85-6.16a3.61,3.61,0,0,1-.9-1c-1-1.27-1.62-2.47-.32-4.06a24.58,24.58,0,0,0,2.62-4.33c1.77-3.39.09-6.67-3.63-7.1a12.42,12.42,0,0,0-5.93.32c-.87.33-1.39-.25-1.82-1a6,6,0,0,1-.8-3.08,7.15,7.15,0,0,0-1.45-3.83c-2.51-3.64-4.51-3.61-7,.05-.34.51-.73,1-1,1.54a6.86,6.86,0,0,0,0,6.59c.73,1.45,1.51,1.84,3.35,1.35s3.28-.19,4.28,1.59a16.73,16.73,0,0,0,1.7,2.17,8.93,8.93,0,0,1,1.94,4.12A37.61,37.61,0,0,1,354.52,704.61Zm-76.85,12.85c-1.06-1.69-.71-4.19-1.05-6.61a1.33,1.33,0,0,0-1.69-1.13c-4.21.67-7.21,3.22-9.68,6.47-.6.78.06,1.24.8,1.72,1.58,1,1.69,1.68.72,2.85-.58.71-1.32,1.3-1.88,2-1.38,1.79-2.1,3.7-.86,5.91a4.15,4.15,0,0,1,.59,1.72c.14,2.66,2.16,3.94,3.91,5.38a1.26,1.26,0,0,0,2-.33c1.08-3.09,3.38-5.42,4.92-8.22C277.08,724.28,277.18,721.21,277.67,717.46Zm16.56,27.32c2.2.18,4.12-1.3,6.32-1a4.79,4.79,0,0,0,3-.92c3-1.77,6-3.54,8.93-5.43a2.42,2.42,0,0,0,.14-4.18,31,31,0,0,1-4.42-4,7.35,7.35,0,0,0-1.48-1,1.56,1.56,0,0,0-2.18,1c-.33,1.29.25,2.89-1.09,3.83a15.25,15.25,0,0,0-3.74,4.57,4.53,4.53,0,0,1-3.6,2.51c-2.08.14-3.17,1.65-4.14,3.24a.77.77,0,0,0,.45,1.1A13.31,13.31,0,0,0,294.23,744.78Zm-1.55-30.25a24.89,24.89,0,0,0-1.5,2.65c-.68,1.62-.28,2.55,1.16,3.43a9.18,9.18,0,0,0,5.31,1c.73,0,1.61.14,1.92-.8a1.43,1.43,0,0,0-1-1.79A15.64,15.64,0,0,1,292.68,714.53Zm-32.09,24.53c1.23,0,2.17.18,3-.41.39-.28.72-.62.59-1.13a5.25,5.25,0,0,0-3.08-3.79c-1.13-.47-3.06-.11-3.43.62a3.41,3.41,0,0,0,.21,3.1A2.66,2.66,0,0,0,260.59,739.06Zm38.9-14a2.84,2.84,0,0,0-2.87,2c-.5,1.06-3.15.2-2.12,2.47l-3.32,2c2.05,0,3.64.14,5.23.12,1,0,2.23.43,3-.57.61-.84-.36-1.71-.31-2.59C299.14,727.39,299.35,726.24,299.49,725.08Zm-6.45-.65a4.63,4.63,0,0,0-.43-.71.5.5,0,0,0-.41-.13,10.76,10.76,0,0,0-6.57,3.56.92.92,0,0,0-.05,1.21.89.89,0,0,0,.77.28,17.48,17.48,0,0,0,6.57-3.82C293,724.74,293,724.56,293,724.43Z"
/>
<path
    class="cls-2"
    d="M1034.07,254.27a2.57,2.57,0,0,1,.72-.11V284.7a1.53,1.53,0,0,1-.7-.1Q1034.07,269.44,1034.07,254.27Z"
/>
<path
    class="cls-2"
    d="M800.62,38.5c-2.22.8-4.55.5-6.83.62-2.91.16-5.83.13-8.73.18a.85.85,0,0,0-.17-.8Z"
/>
<path
    class="cls-2"
    d="M822.84,38.5a.87.87,0,0,0-.17.79c-5.2,0-10.41.09-15.57-.79Z"
/>
<path
    class="cls-2"
    d="M1033.9,786c0,4.47,0,8.94,0,13.42a127,127,0,0,1-1.71,20.68,240.69,240.69,0,0,1-4.81,24,231,231,0,0,1-13.28,37.4,226.4,226.4,0,0,1-21.64,37.61,200.29,200.29,0,0,1-20.82,25.32,266.86,266.86,0,0,1-20.15,19.07,238.22,238.22,0,0,1-27.81,19.87,224.15,224.15,0,0,1-47.33,21.83,219.42,219.42,0,0,1-32.68,8.09c-7.75,1.27-15.52,2.12-23.35,2.85a195.16,195.16,0,0,1-27.24.42c-5.5-.26-11-.66-16.55-1.4-7.63-1-15.22-2.19-22.73-3.85a225.66,225.66,0,0,1-50.07-17.4,230,230,0,0,1-71.64-53.77,216.6,216.6,0,0,1-27.49-37.63,231.12,231.12,0,0,1-19.42-42.38,216.29,216.29,0,0,1-8.69-34.44c-1.27-7.91-2.21-15.82-2.84-23.81-.54-6.78-.62-13.53-.61-20.31,0-7.55.85-15,1.6-22.55a225.81,225.81,0,0,1,19.05-68.68,226.83,226.83,0,0,1,16.91-30.75A237.39,237.39,0,0,1,641,622.36a228.76,228.76,0,0,1,47.5-36.54,224.53,224.53,0,0,1,54.45-22.68,227.6,227.6,0,0,1,22.52-5c6.81-1.11,13.69-1.88,20.61-2.45,7.55-.63,15.08-.62,22.62-.66a199.06,199.06,0,0,1,23,1.67A223.25,223.25,0,0,1,862,562.36,238,238,0,0,1,898.19,575a226.84,226.84,0,0,1,40.38,23.27,190.83,190.83,0,0,1,21.82,17.82c4.56,4.37,9.08,8.76,13.39,13.38A217.08,217.08,0,0,1,991.33,651a228.87,228.87,0,0,1,19.77,32.84,226.51,226.51,0,0,1,19.2,56.72c1.32,6.8,2.11,13.67,3.29,20.49a23.9,23.9,0,0,1,.2,4.15c0,6.94,0,13.89,0,20.83Z"
/>
<path
    class="cls-2"
    d="M837.63,302.3c1.22,1.3.79,2.92.8,4.41.06,10.48,0,21,.08,31.45,0,2.6-.15,5.21.72,7.78a11.2,11.2,0,0,0,1.6,3.75c.81,1,1,2.91.13,3.44-2.54,1.62-1.77,4.28-2.33,6.41-.44,1.72-.76,3.19-2.29,4.23A1.43,1.43,0,0,0,836,365c.2.8.86.53,1.47.46a6.18,6.18,0,0,1,2.27,0,1.28,1.28,0,0,0,1.78-.82,3.84,3.84,0,0,1,1.17-1.34c2.33-1.83,4-3.9,2.75-7.08.73-1.82.34-3.59-.14-5.38a1.9,1.9,0,0,1,.46-1.24.79.79,0,0,1,1.16-.32,4.53,4.53,0,0,1,1.81,2.59c.91,3.09,2,6.15,1.88,9.45a6.54,6.54,0,0,0,.1,2.3c1.19,3.64.62,7.2.11,10.91a41.7,41.7,0,0,0-.22,11c.46,3.57-.88,7-1.18,10.48a7.19,7.19,0,0,0,0,3.13,3.08,3.08,0,0,1-.07,1.8c-1.66,5.32-1.53,10.92-2.58,16.31-.78,4-.18,8-1,11.91a59,59,0,0,0-.74,11c0,1.54.34,3.1.29,4.57-.13,3.91,0,7.79-2.51,11.4a51.79,51.79,0,0,1-10.63,10.74c-1.44,1.14-3.06,2.07-3.8,3.87l0,0a1.53,1.53,0,0,0-1.89.95l0,0c-1.08-.06-2.28-.11-2.95.81-1.05,1.43-3.48,1.56-3.56,3.85l0,0a1.59,1.59,0,0,0-1.89,1l0,0a4,4,0,0,0-2.68.46c-5.43,3.59-11.57,5.55-17.72,7.31s-12.25,3.08-18.65,2.25c-2.9-.38-5.81-.61-8.69-1.08a227.72,227.72,0,0,1-41.05-10.51c-2.6-.95-5.17-2-7.76-3a15.55,15.55,0,0,1-6.07-4.09c-1.86-2.05-3.91-3.93-5.86-5.91s-3.09-4.21-2.42-7.09c.47-2-.35-3.93-.41-5.91a4,4,0,0,0-1.16-1.93c-.88-1.06-1.85-2-2.88-3.16-.49,2.13-2.49,2.16-3.83,3.06a1.26,1.26,0,0,0,0,2.22,3.18,3.18,0,0,0,.4.23c1,.38,2.4.27,2.57,1.59s-.89,2.29-2.09,2.71c-2.54.89-3.3,3-3.58,5.48-5.41-2.21-10-5.35-14.61-8.31-1.16-.74-2.44-1.56-2.21-3.23a3.94,3.94,0,0,1,2.94-3.69c3.56-1,6-3.59,8.38-6.29a1.46,1.46,0,0,0,.22-1.27,1.06,1.06,0,0,0-1.58-.38c-1.66,1.94-4.34,2-6.22,3.61-2.27,2-5.27,2.29-8.23,2.19-.77,0-1.15.24-1.32.88s-.51,1.13-1.26.85a1.79,1.79,0,0,1-1.12-1.37,3.12,3.12,0,0,1,.63-2.16c.23-.42.47-.61,1-.2,1.72,1.35,3.05,0,3.93-1.05,2.32-2.66,4.35-5.56,6.47-8.38a.87.87,0,0,0-.1-1.23,1.8,1.8,0,0,0-1.18-.52,20.84,20.84,0,0,0-2.64.76l-.08-.08c.15-.43.54-1,.39-1.27-.22-.46-.8-.74-1.24-1.1a10.67,10.67,0,0,0,1.56-.75c1.17-.83,1.17-1.58,0-2.52a4.52,4.52,0,0,0-.77-.52c-.78-.42-1.19-.8-.34-1.66a2.36,2.36,0,0,0,.24-2.63c-.5-1.09-1.62-2-1.8-3.12s.08-2.12-.64-3.37c-.93-1.6-.9-3.75-1.37-5.64a1.31,1.31,0,0,0-1-.77c-.55,0-.6.61-.66,1.06-.13,1.09-.26,1.45-.94.17-.54-1-1.75-.3-1.83.09-.41,1.86-2.3,1.74-3.33,2.73s-1.49,2.7-2.92,3.54a4.13,4.13,0,0,0-1.47,1.7,47.71,47.71,0,0,0-3.44,8.53c-.88,3-1.43,6,.13,8.8-1,.78-1.36.17-1.75-.2-4-3.82-8.35-7.3-12.14-11.37a5.37,5.37,0,0,1-1.73-4.53c.22-2,.57-2.37,2.93-2.29.66,0,1.42,0,1.34-.76-.19-1.66.69-1.86,1.91-1.57s2.06.57,2.91-.51c.44-.56.42-1.3-.19-1.43a8.73,8.73,0,0,1-2.23-.44,3,3,0,0,0-3.8.47,4.5,4.5,0,0,1-1.63.79,1.51,1.51,0,0,1-2-1.7,21.54,21.54,0,0,0,.69-2.65c.13-1.87.82-2.86,2.88-2.63.82.09.94-.76.72-1.32a20.64,20.64,0,0,0-1.18-1.95,1.68,1.68,0,0,1,1.32-2.4,1.21,1.21,0,0,1,1.52.72c.25.87.19,1.83.37,2.73.24,1.24,1,1.5,2.33.91s1.35-.58,2.67,1.14c1-.36.58-1.24.58-1.87a6.08,6.08,0,0,1,1.51-3.79,2.62,2.62,0,0,1,3-.69c.85.38.89,1.17.9,1.94s0,1.54,0,2.31c-.13.18-.25.36-.38.53l.54-.36a1.92,1.92,0,0,1,1.75,1.23c.67,1.7.89,3.59,2.19,5,.94,1,1.85,1.06,2.56-.16,1.32-2.28,2.59-4.41,5.3-5.51,1.63-.66,1.78-3.09,3.35-4.16.2-.14.1-.88,0-1.29-.57-1.82-.35-3.68-.4-5.52-.06-2.31,0-4.64-.95-6.81-.7-1.62-.53-3.33-.55-5,0-5.39-1.42-10.67-1.26-16.08.06-2,0-3.91,1.72-5.47a8.88,8.88,0,0,0,1.85-3.18,30.67,30.67,0,0,1,4.89-7.23,11.6,11.6,0,0,1,5-4,6.36,6.36,0,0,0,1.6-.91c1.2-.88,2-2,1.43-3.56a12.84,12.84,0,0,1-.58-4.55,45.62,45.62,0,0,0-.68-5.93c-.68-4.55-.89-9.16-1.23-13.75a8.46,8.46,0,0,1,.3-2.74c.91-3.2.39-6.35.08-9.59-.49-4.92-2.16-9.56-2.9-14.4a45.45,45.45,0,0,1-.32-6.91c0-4.78-.94-9.44-1.52-14.15a9,9,0,0,1-.27-2.74,87,87,0,0,0,1.12-10c.32-3.79,2.73-6,5.86-7.63a114.73,114.73,0,0,1,10.36-5c2.36-.92,2.54-1.33,1.27-3.22a4.41,4.41,0,0,1-.87-3.87c.12-.42.24-1.07,0-1.31-1.5-1.65-1.2-3.8-1.52-5.71-.68-4.07-1.56-8.13-1.44-12.32a20.24,20.24,0,0,0-.66-6.87,6.94,6.94,0,0,1-.25-3.2c.59-3.36-.54-6.29-1.94-9.2-.18-.37-.36-1-.18-1.23,1.86-2,1.06-4.33.81-6.59-.46-4.23-1.64-8.39-1.14-12.74a17.76,17.76,0,0,0-.5-4.11c-.18-1.44-2.31-2.18-1.79-3.51a12.43,12.43,0,0,0,1.07-3.41c.35-3.9-.46-7.71-1.23-11.42a88.29,88.29,0,0,1-1.63-18.33c0-2.77,0-5.55,0-8.32a3.73,3.73,0,0,1,1.42-3.22,16.24,16.24,0,0,0,2.47-2.7c.76-1,2.31-1,2.77-2.28-.08-.16-.11-.36-.21-.4-3-1.24-4.36-3.07-2.93-6.46.5-1.19.15-2.74.17-4.13,0-2-.27-4,1.37-5.65a2.61,2.61,0,0,0,.49-1.73c0-4.12,2.1-7.29,4.47-10.37,1-1.36,1-1.38-.66-2.64-.39-.28-.79-.64-.48-1a1.61,1.61,0,0,1,1.23-.37,2.29,2.29,0,0,1,1.23.54,2.15,2.15,0,0,0,3.26,0c.48-.42,1.11-.74,1.64-.21a2.57,2.57,0,0,1,1,2.43,7.32,7.32,0,0,1-1.17,1.95,13.87,13.87,0,0,0-2.2,9.24c.11,1.14.3,2.11,1.53,2.56,1.06.39,1.14,1.35,1.17,2.29a3.34,3.34,0,0,0,1.7,3.07,3.66,3.66,0,0,1,2,2.9c.16,1.62,1.26,1.91,2.62,2a15.2,15.2,0,0,0,5.9-.83,12.48,12.48,0,0,1,5.39-1.12h0a3.77,3.77,0,0,1-1.8,1.85,2,2,0,0,0-1,1.81,3.84,3.84,0,0,0-1.17.39.57.57,0,0,0,.07,1,.76.76,0,0,0,.72-.18,5.05,5.05,0,0,0,.44-1.16c2.43-.31,4.86-.6,7.28-.94,3.19-.44,6.39-.8,9.6-1.06,4.69-.38,8.69-2.69,12.34-5.52a15.42,15.42,0,0,0,4.94-7.64,5.84,5.84,0,0,1,1.94-3.07A22.59,22.59,0,0,1,750,110.7h6.32c2,0,4,0,6,0,5.54,0,11.11-.27,16.61.19,6.45.54,12.89.64,19.33,1,3,.15,6,1.23,9,1.89,1.05.24,2.08.52,3.13.75,2,.43,3.52,1.83,5.17,2.94.13.08.32.26.29.34-.86,2.69,2.13,4.71,1.28,7.39,0,.15,0,.37-.13.44-.35.26-.73.65-1.11.67a1.39,1.39,0,0,1-1.13-.58,14.88,14.88,0,0,1-.38-2.25c-.08-.39-.08-1.07-.75-.75a1.64,1.64,0,0,0-.81,1c-.45,2,.54,3.59,1.44,5.18.37.64,1.11,1.13,1.1,1.94,0,2.23,3.05,2,3.17,4.11a10.27,10.27,0,0,0,1.27-.33c.5-.2,1-.17,1.07.36a25,25,0,0,1,.06,3.67,1.74,1.74,0,0,1-.59,1.13c-.44.36-.83,0-1.15-.37-.54-.54-1-1.39-1.64-1.53-1.14-.25-2.18-1.23-3.44-.75-.74.29-.11,1.66,1.6,3.34a7.9,7.9,0,0,0,2.06,1.77c1.32.64,1.33,1.06.12,1.73a3.1,3.1,0,0,0-1.58,1.51c-.46,1-.78.4-1-.22s-.58-1.12-1.32-1c-.93.12-1.23.79-1.3,1.62,0,.3,0,.61,0,.92,0,.62,0,1.23,0,1.85l-.11.11c-1.06.09-1.52-1-2.36-1.23-.46-.11-1.15.33-1.59.7s-.2.84.2,1.18c.83.69,1.64,1.39,2.5,2,.35.27.88.67,1.2.58,3.66-1.06,4.1,2.92,6.35,4.05.56.28-.47,2-.84,1.61-1.49-1.37-2.69,1.42-4.17.11-.37-.34-.91.58-1.07,1.17-.4,1.41.54,2.23,1.29,3.23s.54,2-.92,2.71a1.89,1.89,0,0,0-1.14,2.62,15.12,15.12,0,0,1,.72,5.09c1-.35,1.67-2.42,3.07-.55.47.64,1.13.17,1.35-.51.49-1.58,1.2-1.49,2.27-.47.75.7,1.43.21,1.91-.46a1.21,1.21,0,0,0-.26-1.66c-1.75-1.62-2.64-1.68-5.15-.44a.82.82,0,0,1-1.18-.25,1.11,1.11,0,0,1-.12-.88c.31-.66.81-1.25,1.08-1.93.87-2.18,2.09-2.66,3.3-1a11.93,11.93,0,0,0,4.21,3.47,1.91,1.91,0,0,1,1,2.68,8.36,8.36,0,0,0-.63,3.61c.13,5.68-.29,11.38.37,17.05-1.07,6.22.55,12.59-1.07,18.78a4.89,4.89,0,0,0-.11,1.38c.22,5.25-.87,10.34-1.8,15.46a32.32,32.32,0,0,0-.08,3.69c-.18,2.86-.86,3.58-3.77,4.16-1.47.29-2.9,1.07-4.47.35-.1-.05-.6.35-.6.54,0,3.56-2.33.09-3.18,1,0-1.25.32-2.54-.45-4.15-.31,2.56-.31,2.56.47,4.14-.23,2-1.83,2.37-3.33,2.58a26.18,26.18,0,0,0-6.34,1.62c5.23,1,5.23,1,3.66,5.94-.05.14-.17.28-.18.42-.16,2.58-1.57,3.81-4.22,3.85-1-1-1-2.81-2.58-3.56-.57-.27-.56-1-.28-1.65.63-1.38.1-3.12,1.88-4.34a12,12,0,0,0-6,.11,9.14,9.14,0,0,1-5.89,0,3.74,3.74,0,0,0-3.14,0c-3.76,2.13-8,2-12,2.27-5.52.34-11.09.1-16.63.18-3.28.05-4.21.62-4.83,3.75-.4,2-1.44,3.71-2,5.6-.36,1.17-1.54,1.37-1.95,2.33,9.19-1.07,18.44-.19,27.62-.8,5.83-.38,11.71-.27,17.47-1,5.08-.68,10.16-.34,15.17-.9,5.37-.61,10.73-.67,16.1-.8a2.84,2.84,0,0,0,1.74-.46c2.38-2.21,5.67-2.24,8.4-3.64,2.23-1.15,4.18.09,4.13,2.53-.07,4.44.68,8.92-.69,13.31a12.19,12.19,0,0,0,0,2.86,11.91,11.91,0,0,0,2.5-7.69c.15-4,.81-8-.49-11.92,0-.13.26-.41.44-.56s.33,0,.41.15a7.31,7.31,0,0,1,1.61,4.7,21.3,21.3,0,0,0,.63,6.4,8.1,8.1,0,0,1-.17,3.65c-.52,3.33-1.52,6.61-1.38,10,.31,7.92-1.45,15.56-3.1,23.21-.19.9-.39,1.8-.63,2.69-.5,1.92-1.37,3.81-1.46,5.75a19.35,19.35,0,0,0,1,5.38c.2.81.29,1.53-.37,2.11a3.37,3.37,0,0,0-.87,3.42c.48,2.71,1.11,5.39,1.7,8.09.1.44.27.9.82,1,.78.08,1.05-.55,1.26-1.09a5.66,5.66,0,0,0,.38-1.76c.13-6,.23-12,.34-18Zm-39.78-124a1.18,1.18,0,0,0-.92-.92,4.71,4.71,0,0,0,0-.92c-.36-1.67.76-3.62-.94-5a.46.46,0,0,0-.37.13c-1,1.88.71,3.41.71,5.17,0,.22.38.44.58.66l.93.93a3.15,3.15,0,0,0,.57.63c.33.21.6.07.65-.31,0-.07-.21-.22-.34-.25A8.27,8.27,0,0,0,797.85,178.25Zm2.78,29.64c-2.57.1-2.93,2.11-3.39,4,0,.2.23.56.45.73a.64.64,0,0,0,1.06-.24c.68-1.47,1.91-2.73,1.86-4.5.45-.14.53-.27.22-.35C800.8,207.51,800.7,207.76,800.63,207.89Zm4.57-49,.3,1.17.5-.32-.71-.93,0-5.51c.74-.17,1.76-.33,1.66-1.23a44,44,0,0,0-1.1-5.29.94.94,0,0,0-.73,0,2.82,2.82,0,0,0-.78,2.07c-.21,1.61,1,2.89.93,4.45-2,.79-1.87,2.8-2.39,4.4-.21.65.45,1,1,1.13A8.09,8.09,0,0,0,805.2,158.87Zm-20.34,53.66a5.15,5.15,0,0,0-.37-1.17.73.73,0,0,0-.7-.21.54.54,0,0,0,0,1,3.7,3.7,0,0,0,1.17.34c0,1.07,0,2.15-.08,3.21a1.55,1.55,0,0,1-2,1.24c-1.7-.39-2.83-1.79-4.39-2.41a.91.91,0,0,0-1,1.54c1.89,2,4.72,1.92,6.94,3.19.17.1.94-.37,1-.67C785.85,216.53,786.43,214.42,784.86,212.53Zm10.22-21.3c.77,0,1.54,0,2.3-.11.46-.05.9-.31.83-.87a1.11,1.11,0,0,0-.46-.7c-2.78-1.85-2.79-1.85-2.15-5a5.22,5.22,0,0,0,.19-1.34,1.11,1.11,0,0,0-1.25-1.06,1.47,1.47,0,0,0-1.08.65,4.87,4.87,0,0,0-.28,1.79c-.06,2.39,1.06,4.45,1.88,6.59-1.57.6-1.95,2.32-3.12,3.32-.5.43,0,1.51.83,1.82s1.14,0,1.47-.65A7.4,7.4,0,0,0,795.08,191.23Zm-8.39,17.16c-.22.17-.6.32-.64.53a2.53,2.53,0,0,0,.08,1.34c1.53,3.49,2.21,7,.81,10.74a1.07,1.07,0,0,0,.85,1.4,3.41,3.41,0,0,0,1.77-.06c.77-.29.56-1.06.26-1.56-1.21-2-1.56-4-.09-6a2.39,2.39,0,0,0-.14-3c-.68-1-1.38-2-2.12-3C787.31,208.55,787,208.51,786.69,208.39Zm26.49-26.85c.85.76,1.37.59,1.26-.55-.21-2.11-.65-2.42-3-2.05-.81.13-1.53.26-2.15-.32-.44-.41-.9-1.12-1.47-.72-.87.61-.2,1.47.18,2,1.14,1.67,2.14,3.34,2,5.47a1.16,1.16,0,0,0,.45.77c.58.49,1.29,1.18,2,.68,1.21-.86-.09-1.12-.54-1.57a3.56,3.56,0,0,1-.63-.66c-.58-1-.08-1.78.4-2.57C812,181.49,812.49,181.1,813.18,181.54ZM659.64,417.09a11.49,11.49,0,0,0-2.38-5c-.42-.44-1.34-.69-1.51,0-.43,1.7-1.06,2.9-3,3-.29,0-.6,1-.77,1.54s.25,1.31.92,1.16A26.51,26.51,0,0,1,659.64,417.09ZM789.18,227.4a1.81,1.81,0,0,0-1.47-1.72,1.32,1.32,0,0,0-1.74,1c-.18,1,.16,2.26-.27,3.14-1.11,2.29.23,3.74,1.48,5.24a1.44,1.44,0,0,0,1.23.31c.51-.14.46-.66.18-1a4.59,4.59,0,0,1,.13-5.88A4.59,4.59,0,0,0,789.18,227.4Zm15.57-62.23c.59,1.52,0,2-1.49,1.71-.57-.08-.71.44-.75.91a2,2,0,0,0,1.26,2.21c.9.39,1.32-.19,2-.66,1.67-1.25,1.58-2.84,1-4.52a1.29,1.29,0,0,0-1.38-1C804.61,163.94,804.51,164.51,804.75,165.17Zm-13.3,39.4c.21.59.74.44,1.15.53a1.79,1.79,0,0,1,1.43,1c.22.45.15,1.35,1.06,1,.64-.23.74-.88.86-1.49.22-1,.54-2,.7-3.08a14.23,14.23,0,0,0,.12-2.69c0-.41-.27-.92-.88-.73a1,1,0,0,0-.61.52,6.63,6.63,0,0,0-.16,1.34c-.28,2.75-.28,2.75-3.06,3.28A2.35,2.35,0,0,0,791.45,204.57Zm18.42-.85a3.22,3.22,0,0,0-.86-2.52.91.91,0,0,0-1.2-.21.86.86,0,0,0-.3.75,4.15,4.15,0,0,0,.62,1.2c.81,1.11,1.11,2.11-.12,3.2a3.91,3.91,0,0,0-1.17,3.3.93.93,0,0,0,1,.82c.27,0,.73-.17.76-.32C808.93,207.85,810,205.91,809.87,203.72Zm-10.49-36.43c0-.15,0-.38-.11-.43a5.31,5.31,0,0,1-2.64-4.5,2.32,2.32,0,0,0-.86.13c-1.07.66-1.36,1.37-.78,2.2a11.51,11.51,0,0,1,2,4.06c.05.2.39.4.63.46C798.16,169.34,799.47,167.85,799.38,167.29Zm12.1,22.18c-.69,0-1.4.74-1,1.07,1.27,1.15,1.15,2.71,1.46,4.15a1.17,1.17,0,0,0,1.32,1c.82,0,1-.63.89-1.25-.17-1.19-.44-2.36-.65-3.55S812.45,189.48,811.48,189.47Zm-23.2,6.1c-.17.21-.52.44-.49.6.41,2.36,1.43,4.31,3.87,5.1.31.1.83-.24,1.15-.5a.88.88,0,0,0,0-.83c-1.32-1.45-2.68-2.87-4-4.28C788.63,195.58,788.43,195.6,788.28,195.57Zm4.91,35.35c-1-1.64-.69-3.88-.24-6.14,0-.19-.31-.63-.52-.66a.83.83,0,0,0-.95.76c-.21,2.12,0,4.29-.87,6.35-.29.68.58,1.55,1.33,1.46S793,232.19,793.19,230.92Zm23.62-56.74c-.64.15-1.24.59-1.15,1.18.23,1.62.66,3.2,1.05,4.79a.94.94,0,0,0,.72,0c1-1,1.05-2.47,1.39-3.76C819,175.68,817.62,174.3,816.81,174.18ZM796.75,217c-1,.91-.51,1.92-.81,2.73a23,23,0,0,1-1.06,2.51c-.53,1.07.1,1.71.78,2.34a2.83,2.83,0,0,0,2.07.79,1.62,1.62,0,0,0,.85-.18c.66-.58-.13-.73-.38-.92a3.23,3.23,0,0,1-1.32-2.75C796.86,220.09,796.8,218.65,796.75,217Zm3.08,19.44a12.12,12.12,0,0,1-2.16-5.13c0-.43-.41-.94-.94-.66a1.55,1.55,0,0,0-.63,1.06,4.64,4.64,0,0,0,.06,1.82A3.62,3.62,0,0,0,799.83,236.45ZM660,407c-.13.24-.43.58-.36.7.89,1.42,1.43,3.09,2.84,4.14a1.81,1.81,0,0,0,.81.42,1.09,1.09,0,0,0,.8-.26.94.94,0,0,0,.28-.8,7.62,7.62,0,0,0-3.92-4.24C660.35,406.86,660.16,406.94,660,407Zm132.5-186.87c.22-.15.57-.25.64-.45q.83-2.34,1.56-4.73a.71.71,0,0,0-.55-1,.83.83,0,0,0-.69.4,11.24,11.24,0,0,1-1.75,3.14,1.8,1.8,0,0,0,.08,2.12A2.69,2.69,0,0,0,792.51,220.09Zm26-28.74c-.66-.1-1.33,1-1.1,1.66a3.49,3.49,0,0,0,2.69,2.22c.37.1,1.19-.82,1.14-1.22A4.3,4.3,0,0,0,818.54,191.35Zm-18.25-15.56a5.69,5.69,0,0,0,.06-4.12.81.81,0,0,0-.71-.33.85.85,0,0,0-.63.48A3.53,3.53,0,0,0,800.29,175.79Zm5.51-48.18a6.37,6.37,0,0,0-.45,3.84c.07.62.83,1.21,1.18,1a1,1,0,0,0,.41-1.19C806.68,130.23,806.33,129.26,805.8,127.61Zm.39,10.57a7,7,0,0,0-.07-1c-.1-.39-.12-1-.78-.73a1.33,1.33,0,0,0-.64.55,2.06,2.06,0,0,0,.31,2.46,1.69,1.69,0,0,0,.36.23c.33.18.58.08.66-.31S806.15,138.47,806.19,138.18ZM800,153.4c-.5.06-.84.32-.85.82a1.39,1.39,0,0,0,1.28,1.49c.7.11,1.07-.47,1-1.1A1.2,1.2,0,0,0,800,153.4Zm8-9.77a3.75,3.75,0,0,0-.37-1.19c-.22-.3-.75-.64-1-.56-.49.15-.44.76-.29,1.17a4.3,4.3,0,0,0,.68,1.12c.07.1.34.18.41.12A4.46,4.46,0,0,0,808,143.63ZM648.3,418c-.65.08-1.2.31-1,1.11a.88.88,0,0,0,.72.39c.62-.09,1.15-.42,1-1.15C649.05,418.21,648.57,418.13,648.3,418ZM836,326.91c.11-.25.35-.55.28-.74s-.46-.24-.71-.35c-.1.26-.34.55-.28.75S835.72,326.8,836,326.91Zm-22-151.23c.35,0,.42-.13.19-.46,0,0-.28.05-.28.09A1,1,0,0,0,813.94,175.68Z"
/>
<path
    class="cls-2"
    d="M593.35,259.64c.83-2.16-.07-4.23-.42-6.29-1.27-7.55-2.7-15.07-4-22.62a12.79,12.79,0,0,1,.82-6.8.75.75,0,0,1,.61-.41,1,1,0,0,1,.64.57,58.36,58.36,0,0,1,1.25,6.77c.54,6.44,2.25,12.66,3.44,19,.4,2.11,0,4.37,1.18,6.31,1.73,3,2,6.29,2.06,9.64a6.22,6.22,0,0,0,.21,1.35c.13.54.61.66,1.07.68a.93.93,0,0,0,1-1.16c-.32-2.12-.74-4.22-1.08-6.34-.1-.63,0-1.24.8-1.36a1.15,1.15,0,0,1,1.35,1c.37,1.95,1.25,3.81,1.16,5.86a2.39,2.39,0,0,0,1.13,2.37c1.38.81,1.66,2.1,1.64,3.56s0,2.78,0,4.16c-.21,5.42.8,10.68,1.85,15.95a19.2,19.2,0,0,1,.74,3.6,14.6,14.6,0,0,0,2.1,7.38,6.13,6.13,0,0,1-.12,7,4,4,0,0,0-.34,4.36c1.93,3.62,2.07,7.67,3,11.52a16.65,16.65,0,0,1,.17,3.68,8.8,8.8,0,0,0,.48,3.63,3.71,3.71,0,0,1-.65,4.28,1.77,1.77,0,0,0-.15,2.13c2.21,4.4,2.47,9.11,1.93,13.87-.16,1.43.27,3-1,4.48L618,358c.29.63-.19.77-.53.94-1.35.67-2.41,1.42-1.46,3.19a1.92,1.92,0,0,1,0,1.34,2.53,2.53,0,0,1-.81,1.07,1,1,0,0,1-.84.16.85.85,0,0,1-.5-.63c.07-.75.32-1.49.39-2.24a.91.91,0,0,0-.68-1.05c-1.66-.21-3.26-.52-4.8.73a2.5,2.5,0,0,1-3.65-.37,9.7,9.7,0,0,1-1.44-2.34,216.68,216.68,0,0,1-10.18-27.7c-1-3.69-1.76-7.48-2.9-11.14a15.35,15.35,0,0,1-.15-8.15,25.56,25.56,0,0,0,1-6.8,1.78,1.78,0,0,1,1.67-1.88l.14.11c0,1.53,0,3.07,0,4.61a7.1,7.1,0,0,0,1.76,4.89V308.3a6.81,6.81,0,0,1,.66-3.58A9.42,9.42,0,0,0,597,299.4a1.3,1.3,0,0,1,.94-1.38c.26-.1.67-.39.64-.53-.33-1.92-.68-3.84-1.15-5.73-.06-.24-.77-.41-1.19-.45a1.93,1.93,0,0,0-1.68.57c-1.09,1.15-2,.39-2.74-.39a4.94,4.94,0,0,1-1.2-2.43c-.3-2-1.27-3.79-1.15-5.86A3.86,3.86,0,0,0,589,281c-1.38-2.08-1.35-4.37-1.24-6.68a24.31,24.31,0,0,0-1.29-7.68,7.61,7.61,0,0,1,0-5.38,8,8,0,0,0,0-5c-1-4.42-.59-8.86,0-13.28a14.91,14.91,0,0,1,1.08-2.66c0,6,1.62,10.74,2,15.67.2,2.59.86,3.12,3.68,3.76a15.46,15.46,0,0,0,1.18,6.62c.3.7.73,1.36,1.66,1.2.76-.13.87-.8.88-1.39a33.89,33.89,0,0,0-.22-6.55Zm7.47,15.91c.18.24.5.46.53.72.32,2.58.68,5.19-.23,7.71a12.31,12.31,0,0,0-.36,4.55c0,.69.67,1.34,1,1.12a1.11,1.11,0,0,0,.49-1.18,12.47,12.47,0,0,0-.33-1.34c-.16-.69.08-1.23.8-1.33a1.32,1.32,0,0,1,1.61,1.22,11.18,11.18,0,0,1-.14,4.57,21.82,21.82,0,0,0-.56,2.67,1.3,1.3,0,0,0,.75,1.52c.91.24.81-.62.82-1.16,0-2.3,0-4.6,0-6.91a5.37,5.37,0,0,0-1-3.45,9.07,9.07,0,0,1-1.3-6.57c.34-2.44-.86-4.47-.74-6.74,0-.15-.4-.38-.66-.48a.46.46,0,0,0-.66.43c-.1,1.52-.17,3.05-.25,4.57-1.26.73-.89,2.53-2.24,3.3-.66.37-.54,1.36-.41,2.11s.35,1.26,1.06,1.25c.3,0,.65-.48.87-.82C601.1,279.52,600.48,277.46,600.82,275.55Zm-2.23,13.54c.7-3.06-1.58-4.29-1.81-6.29,0-.29-.63-.68-1-.74a1.42,1.42,0,0,0-1.47.85,2.22,2.22,0,0,0-.24,2.16c.82,1.85,2.51,3,3.6,4.67a.89.89,0,0,0,.75-.19C598.64,289.18,598.72,288.72,598.59,289.09Zm-8-28.13c0,2.3,0,3.82,0,5.35a1.75,1.75,0,0,0,.52,1.2,1.83,1.83,0,0,0,1.28.17c.19,0,.52-.5.47-.66C592.25,265.22,592.71,263.05,590.57,261ZM588,262c.15,3.18.15,3.18,1.42,5A5,5,0,0,0,588,262Z"
/>
<path
    class="cls-2"
    d="M911.07,201.34c-16.79,0-33.58-.06-50.36,0a8.37,8.37,0,0,1-6.91-2.79c-2-2.17-3.55-4.64-5.49-6.82-.92-1-1.71-2.16-2.6-3.22-1.89-2.28-2.1-4.21-.5-6.71a45.5,45.5,0,0,1,3-4c2-2.5,4.14-5,6.18-7.44a6.15,6.15,0,0,1,5.26-2.25c10,.08,20,0,30,0l44.81,0c9.24,0,18.48.07,27.72,0a7.4,7.4,0,0,1,6.42,2.84c3.05,3.85,6.19,7.62,9.26,11.46a3.47,3.47,0,0,1,0,4.66c-3.33,4.22-6.71,8.4-10.1,12.57-1.17,1.45-2.82,1.68-4.58,1.67-5.7,0-11.4,0-17.1,0H911.07Zm.64-26H859c-1.08,0-2.16.06-3.24,0a4.09,4.09,0,0,0-3.94,1.81c-1.52,2.12-3.24,4.1-4.93,6.09a2,2,0,0,0-.19,2.88c1.35,1.67,3,3.21,3.94,5.09,1.78,3.48,4.59,4.22,8.07,3.85.3,0,.62,0,.92,0H962.72c1.24,0,2.47-.07,3.7,0a4.66,4.66,0,0,0,4-1.82c1.86-2.25,3.76-4.47,5.56-6.76a2.24,2.24,0,0,0-.19-3c-1.79-2.3-3.56-4.63-5.35-6.93a3,3,0,0,0-2.39-1.2l-3.69,0Z"
/>
<path
    class="cls-2"
    d="M958,369.86a10.91,10.91,0,0,0,5.4-.69,10.35,10.35,0,0,1,8.44.12c4.52,1.82,9.36,2.87,14.09,4.15a15,15,0,0,0,3.22.14,21.3,21.3,0,0,1,3.21.18,21.93,21.93,0,0,1,3.08,1.1,4.53,4.53,0,0,1-.23,1.39,184.43,184.43,0,0,1-16.41,25.07c-1.59,2-2,2.1-4.19.74a48.38,48.38,0,0,0-7.36-3.81c-3-1.2-4.76-3.72-6.11-6.54a6.13,6.13,0,0,1-.35-3.17,10.52,10.52,0,0,0-1.18-6.25,3.85,3.85,0,0,1-.68-3.09c1-2.7.06-5.07-.8-7.52a6.51,6.51,0,0,1-.12-1.83Z"
/>
<path
    class="cls-2"
    d="M631.68,380.34c1.33-.11,2.55-.16,3.76-.33.84-.13.8-.71.46-1.33-.14-.26-.41-.59-.35-.82a1.64,1.64,0,0,1,.67-1,1.39,1.39,0,0,1,1.26.08,3,3,0,0,1,1,1.46c.23.89.1,1.86.33,2.74,1,3.9,2.11,4.62,6.23,4.48a18.1,18.1,0,0,0,3.59-.7c2.84-.7,3.28-2,2.82-4.81-.18-1.05-.59-2.07-.69-3.12a6,6,0,0,1,.63-3.57c1.07-2,1-2.07-1-4.15.72-1.14,1.39-2.34,2.2-3.44a3.38,3.38,0,0,1,2.75-1.44c1.88-.06,3.22.6,3.35,2.4.23,3.21,1.25,6.29,1.23,9.55,0,3.48-.38,7,.54,10.58-.7,0-1.13,0-1.55-.09-3.31-.38-3.31-.39-4.58,2.83-.47,1.18-.82,1.4-2,.62a5,5,0,0,0-6,0,2.78,2.78,0,0,1-1.65.7c-2.81-.41-4.84,1.82-7.4,2.09-1.54.17-1.07,2.33-2.53,2.32-1.05,0-2-.86-3.13-.45-.84.32-1.58.9-2.4,1.29a4.19,4.19,0,0,1-6-3.61,1.53,1.53,0,0,1,.5-1.2c1.57-1,.38-2.6.88-3.76s2.39-1.38,2.94-2.8c.22-.57.56-1.1.74-1.69.67-2.2-.31-3.08-2.08-3.11-.76,0-1.75.14-2.24-.26-1.56-1.3-2.75-.89-3.95.41a.69.69,0,0,1-1.15,0,1,1,0,0,1-.06-.85,8.42,8.42,0,0,1,.79-1.66,2.24,2.24,0,0,1,2.76-1.12,10.92,10.92,0,0,0,5,.72,3.34,3.34,0,0,1,3.66,2.1A5,5,0,0,0,631.68,380.34Zm.46,4.71c-.09.16-.33.53-.54.92a1.78,1.78,0,0,0,.21,1.7c.64,1.3,1.67,1.92,2.36,1.35,1-.8.22-1.61-.1-2.38A2.28,2.28,0,0,0,632.14,385.05Z"
/>
<path
    class="cls-2"
    d="M881.1,343.19c0,.05-.09.81-.13,1.58-.07,1.55-2.51,1.68-2.13,3.28.3,1.28,1.61,2.23,1.43,3.78-.11.91,0,1.85,0,2.77s-.12,1.88-1.25,2.18c-1.6.42-3.15.05-3.75-1a5.35,5.35,0,0,1-.56-1.72c-.15-.81-.43-1.51-1.31-1.67s-1.91-.14-2.26,1c-.3,1-.79,1.22-1.62.6a1.73,1.73,0,0,0-2.47,0,3.61,3.61,0,0,0-1.45,3.65,8.74,8.74,0,0,0,3.3,4.87,1.57,1.57,0,0,0,1.25.26,5.07,5.07,0,0,1,3.15.22c.65.19,1.13-.19,1.37-.87a3.13,3.13,0,0,1,.67-1.18c1.19-1.19,2.21-1.13,3.45.13.22.22.49.39.69.62.9,1,.89,1.68-.46,2.51-1,.58-1.68,1.29-.85,2.08,2.45,2.35,2.08,5.25,2,8.14,0,1.23,0,2.46-.16,3.68a1.49,1.49,0,0,1-.67,1.1c-.9.36-.85-.51-1-1-1.43-3.76-3.95-6.19-8.13-6.46-1.7-.11-2.71-1.35-3.94-2.22a2.21,2.21,0,0,1-.65-2.11,5.63,5.63,0,0,0-1.85-4.52,40.52,40.52,0,0,1-3-4,1.42,1.42,0,0,1,.48-2.31c1.1-.52,2.19-.85,2.84-2.11.93-1.82,1.65-3.43,1-5.65a17.9,17.9,0,0,1-.26-5.95,3.41,3.41,0,0,1,3.63-3.38c2-.08,4,.08,6,0a29.9,29.9,0,0,0,3.61-.61c1.95-.34,3,.4,3.14,2.3C881.13,341.55,881.1,342,881.1,343.19Z"
/>
<path
    class="cls-2"
    d="M654.31,302.31c-1.08-.89-.38-2.52-2-2.6-.2,0-.51-.36-.57-.61-.59-2.48-2-4.82-1.23-7.54a1.86,1.86,0,0,0-.21-1.76c-2-2.57-2.14-5.69-2.19-8.68a63.89,63.89,0,0,0-1.68-13.65,11.44,11.44,0,0,1-.15-2.75,2.47,2.47,0,0,1,1.16-1.89c1.44-1.13,2.79-.66,3,1.11.21,2.14.52,4.25.87,6.38.63,3.77.88,7.61,1.14,11.43a56.2,56.2,0,0,0,1.08,7.26C654.38,293.3,654.09,297.57,654.31,302.31Z"
/>
<path
    class="cls-2"
    d="M817.29,482.78c-.35-2,.88-3.67.93-5.57l0,0c.85.13,1.57,0,1.89-1l0,0a8.46,8.46,0,0,0,6.51-4.66l0,0c.83.07,1.56,0,1.89-.95l0,0a5.71,5.71,0,0,1,2.15.48c.84.61.51,1.65.33,2.55a8.56,8.56,0,0,1-3.67,5.57,34.83,34.83,0,0,0-3.57,2.85c-1.52,1.38-3.09,1.88-5,.82a4.37,4.37,0,0,0-1.34-.25Z"
/>
<path
    class="cls-2"
    d="M869.64,409.73A10.61,10.61,0,0,0,870,407c-.4-3.44,1.16-6.63,1.13-10a.82.82,0,0,1,1-.77,2.14,2.14,0,0,1,1.11.67,3.34,3.34,0,0,1,.55,2.17c.07.92-.1,2,.35,2.7,2.49,3.83.23,7.3-.68,10.86-.16.66-1,.74-1.58.55A2.91,2.91,0,0,1,869.64,409.73Z"
/>
<path
    class="cls-2"
    d="M632.25,291.79a8.77,8.77,0,0,1,0-1.67,2.58,2.58,0,0,1,.59-1.12c.33-.37,1.13.31,1,1.11-.25,2.76,1.11,4.93,2.16,7.33,1.41,3.23,3.14,6.28,4.74,9.4a5,5,0,0,1,.61,2.18c.08,2.9-.13,5.83.69,8.68,0,.18-.26.59-.48.67s-.71-.09-.75-.25c-.59-2.05-1.49-4-1.32-6.25a9.62,9.62,0,0,0-1.89-6.46,52.75,52.75,0,0,1-4.23-7.65A10.13,10.13,0,0,1,632.25,291.79Z"
/>
<path
    class="cls-2"
    d="M850.62,399.12c.36-1.15-1-3.39,1.16-4.05,1.82-.58,2.76,1.5,4,2.53,1.45,1.21,2.49,2.61,2.28,4.69s-1.36,2.89-3.26,1.77a3.18,3.18,0,0,0-2.5-.5c-1.32.28-1.61-.08-1.67-1.36C850.58,401.3,850.62,400.38,850.62,399.12Z"
/>
<path
    class="cls-2"
    d="M933.83,381.14c0,.61,0,1.22,0,1.83a3.59,3.59,0,0,1-2.54,3.86c-.73.3-1.49.68-2.16.24-1-.62-.6-1.55-.28-2.44.64-1.8.87-3.53-.77-5-.52-.48-.26-1.12.18-1.62a4.3,4.3,0,0,1,2.69-1.56c1.95-.27,2.81.41,2.9,2.43,0,.76,0,1.52,0,2.28Z"
/>
<path
    class="cls-2"
    d="M795,65.38c-1.54,1.24-.79,3.28-1.58,4.88s-2.4,1.71-3.86,2c-.43.07-.8-.44-.73-.94s.14-1,.44-1.24c1.88-1.22,2.23-2.9,2.24-5.06a42.8,42.8,0,0,1,1.17-7.12c0-.09.23-.25.31-.22.25.08.65.18.7.36C794.36,60.34,793.71,62.89,795,65.38Z"
/>
<path
    class="cls-2"
    d="M858,389.84c-.18,1,.43,2.3-.79,2.88-1.44.67-2.23-.59-3.09-1.4s-1.84-1.59-.68-3.07c.84-1.08-.25-1.94-1-2.71-.32-.34-.7-.74-.35-1.17a1.67,1.67,0,0,1,1.11-.57c3.27-.1,4.78,1.38,4.84,4.66C858,388.92,858,389.38,858,389.84Z"
/>
<path
    class="cls-2"
    d="M861.28,420.53c-1.51-1.59-3.86-2.25-4.82-4.49-.46-1.08.84-2.93,2-3s2.9.81,3.1,2a9.53,9.53,0,0,0,1.44,3.27,1.17,1.17,0,0,1-.37,1.6A8.29,8.29,0,0,1,861.28,420.53Z"
/>
<path
    class="cls-2"
    d="M756.21,74.6c0-5-3-8.52-5.84-12.15,1.84-.86,2.32-.94,3.14-.16a13.91,13.91,0,0,1,4.07,8.54,4.3,4.3,0,0,1-1.4,3.75Z"
/>
<path
    class="cls-2"
    d="M651.61,345c0,2.84-.62,3.85-2.37,4.08a1.25,1.25,0,0,1-1.07-.56c-.6-2.12-.54-4.18,1.09-5.88a1.48,1.48,0,0,1,1.21-.29,1.44,1.44,0,0,1,.93.82A8.8,8.8,0,0,1,651.61,345Z"
/>
<path
    class="cls-2"
    d="M593.17,303.11c-.3-1.16-.58-2.33-.89-3.49-.12-.44-.33-.85-.44-1.29s1.41-3.72,1.95-3.67c1.68.15.75,1.69,1,2.56a11.23,11.23,0,0,1,.26,3.58,2.59,2.59,0,0,1-1.76,2.42Z"
/>
<path
    class="cls-2"
    d="M875.22,432.76c-.22.27-.3.48-.41.48-.27,0-.69.08-.83-.07a7.65,7.65,0,0,1-1.88-5.75.86.86,0,0,1,.54-.59.9.9,0,0,1,.78.19C874.88,428.72,874.6,430.93,875.22,432.76Z"
/>
<path
    class="cls-2"
    d="M819.8,125.08c.73,2.48-.77,4.29-1.11,6.28a1,1,0,0,1-.78.13,2.2,2.2,0,0,1-.86-3.08C817.87,127.35,818.76,126.34,819.8,125.08Z"
/>
<path
    class="cls-2"
    d="M620.87,385.32a.81.81,0,0,1-.82.81,2.48,2.48,0,0,1-2.39-1.73,1.43,1.43,0,0,1,.45-1.64,1.1,1.1,0,0,1,1.59.16A2.88,2.88,0,0,1,620.87,385.32Z"
/>
<path
    class="cls-2"
    d="M775,68a1.19,1.19,0,0,1-1-1.26c0-.87.87-1.37,2-1.25.68.07,1.17.46,1.09,1.14A2,2,0,0,1,775,68Z"
/>
<path
    class="cls-2"
    d="M776.4,80.5c0,.65-.28,1.19-1,1.29A1.1,1.1,0,0,1,774,81a1.27,1.27,0,0,1,1.19-1.59A1.29,1.29,0,0,1,776.4,80.5Z"
/>
<path
    class="cls-2"
    d="M812.7,148.59c.31,0,.61-.08.92-.09.55,0,1.23-.63,1.62.17a1.13,1.13,0,0,1-.52,1.57,1.28,1.28,0,0,1-1.9-.65,5,5,0,0,1-.23-.89Z"
/>
<path
    class="cls-2"
    d="M837.66,302.28c-1.38-1-.9-2.3-.27-3.61l.24,3.63Z"
/>
<path
    class="cls-2"
    d="M689.25,101.37a2.61,2.61,0,0,1-.88,2,.41.41,0,0,1-.31,0,2.08,2.08,0,0,1-.18-.84,1.45,1.45,0,0,1,1-1.37C689,101.1,689.12,101.28,689.25,101.37Z"
/>
<path
    class="cls-2"
    d="M759.45,91.41a2.74,2.74,0,0,1,0-3.11A2.71,2.71,0,0,1,759.45,91.41Z"
/>
<path
    class="cls-2"
    d="M692.74,101.85a2.53,2.53,0,0,1-.7-.41c-.26-.28-.16-.62.2-.66a.8.8,0,0,1,.68.34C693,101.29,692.81,101.6,692.74,101.85Z"
/>
<path
    class="cls-2"
    d="M958,369.85c-.29,0-.58,0-.85-.08s-.34-.18-.33-.25c.05-.37.31-.51.62-.3a2.86,2.86,0,0,1,.55.64Z"
/>
<path
    class="cls-2"
    d="M723.8,110.69a4.25,4.25,0,0,1,.55-.57c.3-.2.54-.08.58.27,0,0-.21.16-.33.19s-.53.08-.8.12Z"
/>
<path
    class="cls-2"
    d="M756.18,74.58c-.16.33-.31.67-.47,1,0-.12-.13-.29-.09-.35a7.1,7.1,0,0,1,.59-.64Z"
/>
<path
    class="cls-2"
    d="M679.4,430.07c-.08.12-.19.34-.24.33-.3-.06-.24-.22.16-.41Z"
/>
<path
    class="cls-2"
    d="M817.28,482.77l-.18.32.19-.31Z"
/>
<path
    class="cls-2"
    d="M238.78,755.87a1.84,1.84,0,0,0-2,.71,1.51,1.51,0,0,0,.09,1.72c.32.54.7,1.07,1.43.9,1.5-.33,3-.74,4.47-1.08a4.18,4.18,0,0,1,1.36-.15,1,1,0,0,1,.63.5c.18.33,0,.58-.33.76-1,.5-2.19-.14-3.05.74,0,1.34,1.67,1.36,1.88,2.43s.15,2.15.26,3.22c.06.57.92.8,1.47.39.36-.27.88-.54,1-.9.39-1.5,1.32-1.42,2.44-1,.29.11.63.1.9.23,2.33,1.07,4.2.72,5.32-1.77.28-.62.74-1.15,1.35-1.09,1.7.18,2.67-1.46,4.75-1.68.93,1.06,2,2.37,3.16,3.57a1,1,0,0,0,1.61-.2c.1-.11.15-.27.25-.38.79-.93.59-2.53,1.85-3.08,1.59-.7,3,.47,4.43.82a9,9,0,0,1,2.13.9c1.7.89,3.17,1,4.42-.81s3.06-1.14,4.67-1a8.25,8.25,0,0,1,2.56,1,1.83,1.83,0,0,0,2.15-.08c1.34-1.2,2.69-1.15,4.27-.46a24.38,24.38,0,0,0,3.55,1,2.21,2.21,0,0,0,2.19-.32c1.35-1.37,2.8-.85,4.27-.42a25.21,25.21,0,0,0,8.2,1c1.68-.08,3.34.11,4.95-.7a3.1,3.1,0,0,1,3.46.61l1.07.88c2.66,2.25,5.45,3.84,9.21,2.87a18.71,18.71,0,0,1,5.08-.1,7,7,0,0,0,4.75-1.36,6,6,0,0,1,3.87-1.34,7.21,7.21,0,0,0,3.52-1c5-2.48,12.4,2.12,12.78,7.56.36,5.22,1,10.41,1.18,15.65a172.16,172.16,0,0,0,1.48,19.76,11.18,11.18,0,0,1,.16,2.31c-.28,5.25.66,10.41,1.18,15.6a4.13,4.13,0,0,1-.06,1.79c-1,2.53-.77,5.52-3.07,7.54-.86.75-.84,1.93-.84,3,0,1.54-.07,3.09,0,4.63,0,1.06-1.09,2.13-.28,3.07,1.07,1.23,2.37.13,3.39-.25,2.82-1,5.81-1.6,8.42-3.19,1.65-1,3.24-.44,4.83.29,3.22,1.47,6.44,2.92,9.69,4.34,1.69.74,3.42,1.38,5.12,2.09a20.87,20.87,0,0,1,8.33,5.66,11.21,11.21,0,0,0,2.54,2,9.46,9.46,0,0,1,4.25,7.33,46.1,46.1,0,0,0,.76,6,5.9,5.9,0,0,1,0,2.29,47.56,47.56,0,0,0,.09,17.44,25.38,25.38,0,0,1,.19,4.62c0,5.71,0,11.42,0,17.12,0,1.85-.1,3.67,1,5.35a4.28,4.28,0,0,1,.59,2.65c-.31,2.56,1.1,3.93,3,5.21,3,2,5.8,4.06,8.69,6.1a24.23,24.23,0,0,1,2.25,1.62,2.63,2.63,0,0,1,.36,3.74,46.05,46.05,0,0,1-5.51,6.21c-3.07,2.59-5.86,5.46-8.77,8.21a207,207,0,0,1-30.67,23.7,213.86,213.86,0,0,1-58,26,233.92,233.92,0,0,1-28.39,6.06c-4.09.61-8.27.86-12.38,1.33-9.25,1-18.48.63-27.72.68-6,0-11.94-1-17.91-1.55a172.69,172.69,0,0,1-18.66-3A217.5,217.5,0,0,1,185,991.77c-7.11-2.58-14-5.61-20.85-8.81-6.57-3.08-12.74-6.88-19-10.51-5.47-3.18-10.58-6.9-15.72-10.56-3.63-2.59-7.07-5.45-10.48-8.32q-8.33-7-15.89-14.81a220.2,220.2,0,0,1-52-86.3,201.47,201.47,0,0,1-7.45-31.41c-.83-5.47-1.4-11-2-16.48-1.17-10.16-.86-20.33-.52-30.48.18-5.34.87-10.71,1.5-16.05a214.73,214.73,0,0,1,6.72-33,208.84,208.84,0,0,1,10.3-28.18A227.7,227.7,0,0,1,74.41,669.2a221.51,221.51,0,0,1,13.93-19.56,221.52,221.52,0,0,1,57.55-50.83A209.92,209.92,0,0,1,167,587.42a217.7,217.7,0,0,1,47.18-15.76c6.48-1.35,13-2.39,19.52-3.34a111.73,111.73,0,0,1,13.79-1.08c8-.18,16-.13,24.06-.07a134.22,134.22,0,0,1,17,1.62c2.59.35,5.2.54,7.76,1.15a2.27,2.27,0,0,1,1.8,1.79c1.24,3.78,2.38,7.62,4,11.26s3.25,7.21,4.57,10.92a78.51,78.51,0,0,1,2.49,9.32,24.34,24.34,0,0,0,1.08,3.46,33.62,33.62,0,0,1,1.66,6.64,12,12,0,0,0,1.17,3.94,3.22,3.22,0,0,1,.55,1.27c.18,4.32,2.65,7.76,4.22,11.56a28.74,28.74,0,0,1,2.28,7.93,33,33,0,0,0,2.11,8.46,58.56,58.56,0,0,1,2.84,10.17c.59,3.31,1.81,6.5,2.52,9.8a49.15,49.15,0,0,0,5.19,13.69c1.47,2.64,1.25,5.66,1.11,8.6a1,1,0,0,1-.52.64.84.84,0,0,1-.78-.18c-1.1-1.68-2.19-3.39-2.06-5.52a4.59,4.59,0,0,0-1.69-4.09c-1.94-1.59-3-3.92-4.69-5.68-.53-.55-1.09-1.32-1.92-1-1.68.64-3-.11-4.39-.79a2,2,0,0,0-2.47.41c-2.95,2.32-4.95,5.06-4.46,9.27-.69-.66-1.11-1.31-1.7-1.54s-1.14.36-1.48.87a16,16,0,0,0-.86,1.64c-.09.18-3.13,4.38-3.31,4.53a5.56,5.56,0,0,0-2.07,3.91c-.12,1-.1,1.89.69,2.49,1.53,1.15.48,2.52.46,3.81l.05,0c-2.29-.65-4.58-.16-6.8.22-4.14.71-6.52-.11-8.93-3.56-.17-.25-.23-.63-.45-.78a3.43,3.43,0,0,0-1.62-.76c-.74,0-.75.78-.87,1.37a5.42,5.42,0,0,1-.33.84c-.38-.17-.92-.23-1.12-.52-.7-1-1.3-2.08-1.91-3.15a9.86,9.86,0,0,0-6-4.8c-2.21-.65-4.43-1.27-6.6-2a3.44,3.44,0,0,0-2.68.12c-2.79,1.29-5.57,2.63-8.33,4a5.28,5.28,0,0,0-1.83,2,29.81,29.81,0,0,1-5.65,6,12.33,12.33,0,0,1-3.89,2.43c-3.47,1.11-5.64,3.63-7.33,6.63a16.44,16.44,0,0,1-2.71,3.67c-1.84,1.86-3.58,3.86-3.55,6.73,0,2.58-.54,5.21,1.36,7.53.85,1,.47,1.65-.94,2.5-2.14,1.29-2.43,1.75-2.09,3.42a2.69,2.69,0,0,0,2.82,2.51c2.46.13,4.93.12,7.39.26.36,0,.69.52,1,.8-.21.19-.4.49-.65.56-1.36.39-1.38,1.56-1.52,2.59-.16,1.22-2,2-1.21,3.27s2.5.72,3.82.84c1.07.1,2.15.05,3.23.08.47,0,.9.14,1,.67s-.39.81-.81.84c-1.38.12-2.77.11-4.15.24-1.2.12-1.68.92-1.55,2.36.07.75.55,1.14,1.24.93,1.46-.45,2.9-1,4.34-1.55.57-.21,1.18-.53,1.47.29a1.45,1.45,0,0,1-.6,1.63,10.42,10.42,0,0,1-3.05,2.05c-2.35.69-3.91,2.36-5.81,3.93.43,1.35,1.64,2.52,1.38,4.14ZM265.6,861.29l.09.08c1.45,2.35,2.76,3.11,6.2,3.54-.05-.47-.05-.92-.14-1.35-.37-1.95-.9-3.89-1.09-5.85-.11-1.05,1.4-1.54,1.48-2.74s0-2.71.66-3.48c1.69-1.94,1.14-4.4,2-6.5a2.56,2.56,0,0,0-.73-3c-1.19-.94-1.09-2.11-.76-3.35A37.55,37.55,0,0,0,275,827.33a4.81,4.81,0,0,1,.65-2.63c1.06-1.66,1,.74,1.7.58.62-.72,1.26-1.38,1.81-2.12,1.34-1.84,2.92-3.49,3.22-6,.26-2.12,2.47-2.48,4-3.44,1.49,1.18,2.05,0,2.76-1a10.11,10.11,0,0,1,1.33-1.28c1.13-1.07,2.17-2.09,1.2-3.91a2.12,2.12,0,0,1,.63-2.52,8.26,8.26,0,0,0,1.18-1.4c.59-.89.43-1.44-.88-2-.68-.27-1-.48-1-1.21a6.42,6.42,0,0,1,.94-3.05c.39-.82,1.13-1.69.73-2.59-.71-1.56-.12-3,.09-4.48.19-1.28-.41-1.87-1.55-2.5s-2.29.22-3.42-.86-2.14-.49-2.15,1a4.21,4.21,0,0,1-2.56,4,13.32,13.32,0,0,0-6.15,7.18c-.42,1-1.06,1.92-.44,3,.39.7,1.75,0,2.84-1.51.54-.75,1.06-1.51,1.55-2.3a15.38,15.38,0,0,1,3.4-3.75,1.83,1.83,0,0,1,1.23-.39c.77.08.88.81.91,1.4.09,1.33-2.55,9-3.36,9.89a1.22,1.22,0,0,1-.36.27c-1.57.87-1.86,2.34-1.89,4,0,.45-.16,1-.72.83a1.57,1.57,0,0,1-.88-.94c-.41-1.32-.66-2.69-1.07-4-.56-1.78-1.11-2.05-2.56-1-.87.64-1.31.86-2.31.15-1.52-1.07-2.37-.68-2.56.87-.11.92-.05,1.86-.2,2.77a1.75,1.75,0,0,1-2.31,1.61c-2.27-.82-4.58-.45-6.87-.59-3.14-.19-5,1.9-4.34,4.77.1.44.39.84.51,1.28.71,2.58,2.46,5.08.56,7.85a.6.6,0,0,0,0,.45c.73,1.32.11,2.32-.7,3.35a8.31,8.31,0,0,0-1.53,5.67c.08,2,0,4,0,6a2.72,2.72,0,0,1-1,2.46c-2.19,1.42-3.95,3.46-6.48,4.39-1,.38-1.9.8-3.06.31-2.5-1.05-4.82.38-7.18.85-1.48.3-2,1.85-2.32,3.21a1.37,1.37,0,0,0,.83,1.51,4.88,4.88,0,0,0,1.74.53,10.25,10.25,0,0,0,5-.58,1.53,1.53,0,0,1,2,1.34c-.12,1.73.6,3.62-1.24,5.07a5,5,0,0,0-1.94,4,1,1,0,0,0,.42.75.85.85,0,0,0,.79-.19c.66-1.35,1.32-2.66,2.87-3.18,1.3,1.56,2.81,2.89.86,5.13-1,1.17-.68,3-.22,4.46a2.2,2.2,0,0,0,1.22,1.25c.61.22,1.13-.27,1.39-.9a6.56,6.56,0,0,0,.66-1.71c.12-1.53.07-3.08.15-4.62.09-2,.3-2.37,2.46-2.45a3.18,3.18,0,0,0,3.39-2.36c.61-1.67,2.31-2.4,3.92-3A1.81,1.81,0,0,1,263,856a8.41,8.41,0,0,1,1,4C264.05,860.9,264.84,861.11,265.6,861.29Zm5.59,21.34a2.37,2.37,0,0,0-.13-.32c-.05-.06-.16-.06-.24-.08l.38.38v4.56c1.53.59,3-.37,4.21.42a1.75,1.75,0,0,1,.53.69c.15.33,0,.6-.41.65-1.07.15-2.14.21-3.2.42a.88.88,0,0,0-.69,1,12.45,12.45,0,0,0,.73,2.66c1.47,3.2.68,6-1.41,8.56-.68.84-1.39,1.65-2.15,2.42-1.72,1.76-3.58,3.41-5.2,5.26a11.3,11.3,0,0,1-9.44,3.88c-3.23-.11-6.47-.11-9.71-.06-2.8,0-3.54,1.31-2.17,3.85a6.65,6.65,0,0,1,1.14,3.42,6.66,6.66,0,0,0,.74,2.64c1.6,3.86,1.4,4.19-2.73,5-1.4.28-2.29,1.54-1.51,2.68,1.21,1.74,1.09,3.7,1.55,5.56.39,1.64.38,3.72,1.4,4.79,2.18,2.28,1.18,4.17.14,6.28-.27.55-.54,1.11-.77,1.68-.49,1.2-.16,2.06.95,1.94,2.85-.31,5,1.36,7.28,2.49,1.63.82,2.87,1.32,4.7.67,2.76-1,5.65-1.41,8.45.11a1.77,1.77,0,0,0,1.32.22c3.75-1.63,5.8,1.64,8.53,2.91.28.14.42.76.47,1.17.26,2.19-.42,4.26-.8,6.37-.92,5.13-1.77,10.27-4.15,15a4.91,4.91,0,0,0-.34,1.33.49.49,0,0,0,.16.39,1.29,1.29,0,0,0,.74-.12,1.79,1.79,0,0,0,.54-.73,16.71,16.71,0,0,1,6.16-7.35,76.28,76.28,0,0,0,7.22-6.44,75.94,75.94,0,0,1,7.53-6.78c1.74-1.26,4.08-1.88,5-4.45.45-1.33,2.41-1.85,4-1.84a18.77,18.77,0,0,1,3.64.45c.9.19,1.5,0,1.79-.89.34-1,1.19-1.28,2.08-1.61a13.72,13.72,0,0,1,8.17-.28c2.08.5,4.08,1.37,6.28,1.38,1.49,0,2.8-.1,3-2a1.71,1.71,0,0,1,1.88-1.64c2.6.05,5.18-.2,7.79.56a15,15,0,0,0,9.9-.12,11.43,11.43,0,0,1,7.69.22c1.62.51,3.24,1,4.84,1.53s3.14.09,3.84-1.54a3.87,3.87,0,0,1,3.63-2.37,8.78,8.78,0,0,1,3.2.18c2.74.87,5.87.33,8.3,2.32.2.16.6,0,.91.07a.73.73,0,0,0,.77-1.13c-.46-.92-1.54-1.87.48-2.22.36-1-.9-1.16-1.05-1.8-.65-2.8-2.74-4.79-3.88-7.3-.39-.85-.8-1.8-1.76-2-2.39-.54-2.88-2.53-3.61-4.28,1-2,2.12-3.85,3-5.81.71-1.59.2-2.71-1.53-3-2.61-.51-3.65-2-3.67-4.52a5.39,5.39,0,0,0-1.58-4.37c-2.18,1.13-4.45,2.35-7.14,1.61-.37-.1-.86.36-1.31.39a8.55,8.55,0,0,1-3.19,0c-2.28-.79-4.57-.58-6.87-.6-1.39,0-2.78,0-4.16-.07-1.7-.14-2.42-.91-2.6-2.66s.12-3.37-.68-5-1.34-3.44-2.16-5.09a9.6,9.6,0,0,1-.44-7.62,12.61,12.61,0,0,0,.54-6.26,18.21,18.21,0,0,1,.61-8.68c.63-1.85,1-3.8,1.51-6a6.58,6.58,0,0,0-4.08,2.27c-2.73,3.14-6.08,5.63-9,8.56-2.56,2.59-5.34,3.44-8.78,2.29a7.13,7.13,0,0,0-4.54.1c-1,.32-2.14.37-3.13.76a7.09,7.09,0,0,1-6.22-.38,12.79,12.79,0,0,0-3.88-1.43c-3.48-.54-7.07-1.35-9.87,1.88-.29.33-.8.46-1.17.73-1,.7-2,1.6-3.14.24-.13-.15-.6-.11-.85,0-.83.3-1.46,1.58-2.39,1-.66-.44-.83-1.56-1.33-2.3-.34-.5-.8-1.13-1.31-1.25-2-.51-3.45-1.94-5.11-3C272.84,882.61,271.94,882.74,271.19,882.63Zm-67.69,49c.33-5.08-1.26-10-.93-15.11a8,8,0,0,0-.46-1.77,3.33,3.33,0,0,0-2.6-2.83c-1.1-.33-2.51-.31-3.16-1.6-.27-.52-.41-1.32-1.12-1.2-1,.16-.85,1.13-.88,1.85,0,.92.07,1.85,0,2.77-.44,6.11.66,12.27-.76,18.36-.43,1.86,1.85,5.91,3.44,6.69a2.21,2.21,0,0,0,.87.23,29.05,29.05,0,0,0,3.23,0,2.34,2.34,0,0,0,2.34-2.37C203.58,935,203.5,933.3,203.5,931.61Zm124.09-84.29a2.93,2.93,0,0,0-.88-2.49c-2.29-1.91-3.63-4.48-4.87-7.13a5.4,5.4,0,0,0-1.76-2.63,1.12,1.12,0,0,0-.84-.1,1,1,0,0,0-.61.59,2.63,2.63,0,0,0,.09,1.34c1.2,2.91.6,5.73-.38,8.52a24.67,24.67,0,0,1-2.95,5.7c-.84,1.26-.74,2.11.07,2.89,1,.91,2.1.89,3.29-.1a5.49,5.49,0,0,0,1.3-1.29c1.14-1.94,2.76-2.54,5-2.46S327.62,849.53,327.59,847.32ZM204.88,921.64a2.37,2.37,0,0,1,2.45-1.28,2.79,2.79,0,0,0,.91,0,3.36,3.36,0,0,0,2.82-3.12c.35-2.83,2.57-3.73,5-2.36,1.06.61,2.11,1.25,3.22,1.75a1.23,1.23,0,0,0,1.6-.53,1.48,1.48,0,0,0-.15-1.73,5.22,5.22,0,0,0-1.42-1.09c-3-1.62-6.24-.39-9.36-.44a9.28,9.28,0,0,0-3.13.66,4,4,0,0,0-2.7,5.07C204.31,919.57,204.59,920.55,204.88,921.64Zm173.4-22.35c1.35-1,3.24-.83,5-1.2a2.46,2.46,0,0,0,1.47-3.36c-.16-.34-.74-.8-1-.74-2.55.58-5,1.44-6.53,3.8a1,1,0,0,0,0,.85C377.32,898.86,377.68,898.94,378.28,899.29Zm-128.95-60c0-.06.06-.23,0-.35s-.24-.27-.35-.26c-1.94.22-3.89.45-5.82.73a3.74,3.74,0,0,0-1.24.56c-.4.23-.79.61-.46,1.05a1.46,1.46,0,0,0,1.11.6c2.07-.49,4.11-1.07,6.14-1.67C248.94,839.83,249.09,839.5,249.33,839.24Zm98.23,10a5.93,5.93,0,0,0,1-.11c.42-.13.91-.28.73-.87a1,1,0,0,0-.54-.59,3.88,3.88,0,0,0-2.6.1c-.34.15-.51.38-.33.71a1.17,1.17,0,0,0,.56.58A5.55,5.55,0,0,0,347.56,849.21Zm-72.79,18.28c.24-.11.6-.16.67-.34a.74.74,0,0,0-.23-.7.52.52,0,0,0-.84.43C274.35,867.07,274.63,867.29,274.77,867.49Z"
/>
<path
    class="cls-2"
    d="M423.57,714.24a9.83,9.83,0,0,1-7.64-.25,5.87,5.87,0,0,1-2.49-2c-2.45-3.25-2.1-9.43.69-12.39.74-.79,1.58-1.48,2.31-2.27,1.46-1.56,1.5-2.48.25-4a11.54,11.54,0,0,0-1.27-1.35c-1.92-1.78-2.57-4.18-3.09-6.59a6.39,6.39,0,0,1,1.65-6c3-3.15,6.37-5.35,11-4.81a5.74,5.74,0,0,0,.92,0c.13,0,.26-.11.41-.18.57-.63.35-1.43.44-2.18.6-4.83,3.17-7.13,7.91-7.21a9.74,9.74,0,0,1,5.72,1.47c.51.34,1,.93,1.55,1,2.74.18,3.81,2.21,5,4.19a217.75,217.75,0,0,1,23.55,54A195.13,195.13,0,0,1,476.71,755a178.7,178.7,0,0,1,1.84,23.44c0,1.22.28,2.44.36,3.66a24.37,24.37,0,0,1,.14,5.52,58,58,0,0,0-.57,9.66c-.05,6.33-1,12.56-1.68,18.82-.51,4.44-1.6,8.77-2.17,13.18a5.09,5.09,0,0,1-1.27,2.76c-1.31-3.37-2.89-6.5-2.95-10.06a25.64,25.64,0,0,0-1.17-7.26,146.91,146.91,0,0,1-4.63-18.28c-.34-1.91-.61-3.94-1.85-5.63s-.49-3.94-1.74-5.66a5.31,5.31,0,0,1-.78-3.55,20.16,20.16,0,0,0-3-11.89,22.84,22.84,0,0,1-2.53-7.82,84.93,84.93,0,0,0-2.54-9.8,90.67,90.67,0,0,1-2.39-9.82c-1-5-2.52-9.79-3.82-14.68a1.57,1.57,0,0,0-1.27-1.18c-2.24-.52-4.5-1-6.36-2.5a2.47,2.47,0,0,0-2.65-.21c-2.51,1.12-5.14.74-7.75.76a3.52,3.52,0,0,1-3.07-1.7C422.75,719.75,422.65,719.45,423.57,714.24Z"
/>
<path
    class="cls-2"
    d="M354.52,704.61a37.61,37.61,0,0,0-1-10,8.93,8.93,0,0,0-1.94-4.12,16.73,16.73,0,0,1-1.7-2.17c-1-1.78-2.38-2.09-4.28-1.59s-2.62.1-3.35-1.35a6.86,6.86,0,0,1,0-6.59c.29-.54.68-1,1-1.54,2.45-3.66,4.45-3.69,7-.05a7.15,7.15,0,0,1,1.45,3.83,6,6,0,0,0,.8,3.08c.43.71.95,1.29,1.82,1a12.42,12.42,0,0,1,5.93-.32c3.72.43,5.4,3.71,3.63,7.1a24.58,24.58,0,0,1-2.62,4.33c-1.3,1.59-.69,2.79.32,4.06a3.61,3.61,0,0,0,.9,1c2.66,1.45,1.85,3.93,1.85,6.16a1.19,1.19,0,0,1-.35.83c-2.25,1.82-4.37,3.91-7.56,3.95-1.09,0-1.83-.51-1.87-1.58C354.47,708.61,354.52,706.61,354.52,704.61Z"
/>
<path
    class="cls-2"
    d="M277.67,717.46c-.49,3.75-.59,6.82-2.22,9.79-1.54,2.8-3.84,5.13-4.92,8.22a1.26,1.26,0,0,1-2,.33c-1.75-1.44-3.77-2.72-3.91-5.38a4.15,4.15,0,0,0-.59-1.72c-1.24-2.21-.52-4.12.86-5.91.56-.73,1.3-1.32,1.88-2,1-1.17.86-1.82-.72-2.85-.74-.48-1.4-.94-.8-1.72,2.47-3.25,5.47-5.8,9.68-6.47a1.33,1.33,0,0,1,1.69,1.13C277,713.27,276.61,715.77,277.67,717.46Z"
/>
<path
    class="cls-2"
    d="M294.23,744.78a13.31,13.31,0,0,1-1.78-.34.77.77,0,0,1-.45-1.1c1-1.59,2.06-3.1,4.14-3.24a4.53,4.53,0,0,0,3.6-2.51,15.25,15.25,0,0,1,3.74-4.57c1.34-.94.76-2.54,1.09-3.83a1.56,1.56,0,0,1,2.18-1,7.35,7.35,0,0,1,1.48,1,31,31,0,0,0,4.42,4,2.42,2.42,0,0,1-.14,4.18c-2.92,1.89-5.93,3.66-8.93,5.43a4.79,4.79,0,0,1-3,.92C298.35,743.48,296.43,745,294.23,744.78Z"
/>
<path
    class="cls-2"
    d="M292.68,714.53a15.64,15.64,0,0,0,5.88,4.47,1.43,1.43,0,0,1,1,1.79c-.31.94-1.19.78-1.92.8a9.18,9.18,0,0,1-5.31-1c-1.44-.88-1.84-1.81-1.16-3.43A24.89,24.89,0,0,1,292.68,714.53Z"
/>
<path
    class="cls-2"
    d="M260.59,739.06a2.66,2.66,0,0,1-2.72-1.61,3.41,3.41,0,0,1-.21-3.1c.37-.73,2.3-1.09,3.43-.62a5.25,5.25,0,0,1,3.08,3.79c.13.51-.2.85-.59,1.13C262.76,739.24,261.82,739.06,260.59,739.06Z"
/>
<path
    class="cls-2"
    d="M299.49,725.08c-.14,1.16-.35,2.31-.42,3.46-.05.88.92,1.75.31,2.59-.74,1-1.95.56-3,.57-1.59,0-3.18-.07-5.23-.12l3.32-2c-1-2.27,1.62-1.41,2.12-2.47A2.84,2.84,0,0,1,299.49,725.08Z"
/>
<path
    class="cls-2"
    d="M293,724.43c0,.13,0,.31-.12.39a17.48,17.48,0,0,1-6.57,3.82.89.89,0,0,1-.77-.28.92.92,0,0,1,.05-1.21,10.76,10.76,0,0,1,6.57-3.56.5.5,0,0,1,.41.13A4.63,4.63,0,0,1,293,724.43Z"
/>
<path
    class="cls-2"
    d="M302.64,697.52a2.89,2.89,0,0,1,.65.53c.2.32,0,.58-.32.62-.07,0-.21-.21-.23-.33a6.29,6.29,0,0,1-.05-.86Z"
/>
<path
    class="cls-2"
    d="M238.86,755.79c.11.07.33.16.32.22,0,.28-.19.23-.4-.14Z"
/>
<path
    class="cls-3"
    d="M786.7,208.39c.26.12.61.16.77.36.74,1,1.44,2,2.12,3a2.39,2.39,0,0,1,.14,3c-1.47,2-1.12,4,.09,6,.3.5.51,1.27-.26,1.56a3.41,3.41,0,0,1-1.77.06,1.07,1.07,0,0,1-.85-1.4c1.4-3.72.72-7.25-.81-10.74a2.53,2.53,0,0,1-.08-1.34C786.09,208.71,786.47,208.56,786.7,208.39Z"
/>
<path
    class="cls-3"
    d="M813.18,181.54c-.69-.44-1.14,0-1.48.51-.48.79-1,1.61-.4,2.57a3.56,3.56,0,0,0,.63.66c.45.45,1.75.71.54,1.57-.72.5-1.43-.19-2-.68a1.16,1.16,0,0,1-.45-.77c.12-2.13-.88-3.8-2-5.47-.38-.56-1-1.42-.18-2,.57-.4,1,.31,1.47.72.62.58,1.34.45,2.15.32,2.36-.37,2.8-.06,3,2.05C814.55,182.13,814,182.3,813.18,181.54Z"
/>
<path
    class="cls-3"
    d="M659.64,417.09a26.51,26.51,0,0,0-6.79.73c-.67.15-1.12-.44-.92-1.16s.48-1.53.77-1.54c2-.11,2.62-1.31,3-3,.17-.67,1.09-.42,1.51,0A11.49,11.49,0,0,1,659.64,417.09Z"
/>
<path
    class="cls-3"
    d="M789.18,227.4a4.59,4.59,0,0,1-.46,1.06,4.59,4.59,0,0,0-.13,5.88c.28.39.33.91-.18,1a1.44,1.44,0,0,1-1.23-.31c-1.25-1.5-2.59-3-1.48-5.24.43-.88.09-2.1.27-3.14a1.32,1.32,0,0,1,1.74-1A1.81,1.81,0,0,1,789.18,227.4Z"
/>
<path
    class="cls-3"
    d="M795.06,191.21c-.82-2.14-1.94-4.2-1.88-6.59a4.87,4.87,0,0,1,.28-1.79,1.47,1.47,0,0,1,1.08-.65,1.11,1.11,0,0,1,1.25,1.06,5.22,5.22,0,0,1-.19,1.34c-.64,3.12-.63,3.12,2.15,5a1.11,1.11,0,0,1,.46.7c.07.56-.37.82-.83.87-.76.09-1.53.08-2.3.11Z"
/>
<path
    class="cls-3"
    d="M784.86,212.53c1.57,1.89,1,4,.52,6.05-.07.3-.84.77-1,.67-2.22-1.27-5-1.22-6.94-3.19a.91.91,0,0,1,1-1.54c1.56.62,2.69,2,4.39,2.41a1.55,1.55,0,0,0,2-1.24c.1-1.06.06-2.14.08-3.21Z"
/>
<path
    class="cls-3"
    d="M804.75,165.17c-.24-.66-.14-1.23.63-1.35a1.29,1.29,0,0,1,1.38,1c.54,1.68.63,3.27-1,4.52-.63.47-1.05,1-2,.66a2,2,0,0,1-1.26-2.21c0-.47.18-1,.75-.91C804.74,167.12,805.34,166.69,804.75,165.17Z"
/>
<path
    class="cls-3"
    d="M791.45,204.57a2.35,2.35,0,0,1,.61-.32c2.78-.53,2.78-.53,3.06-3.28a6.63,6.63,0,0,1,.16-1.34,1,1,0,0,1,.61-.52c.61-.19.86.32.88.73a14.23,14.23,0,0,1-.12,2.69c-.16,1-.48,2.05-.7,3.08-.12.61-.22,1.26-.86,1.49-.91.31-.84-.59-1.06-1a1.79,1.79,0,0,0-1.43-1C792.19,205,791.66,205.16,791.45,204.57Z"
/>
<path
    class="cls-3"
    d="M809.87,203.72c.14,2.19-.94,4.13-1.31,6.22,0,.15-.49.31-.76.32a.93.93,0,0,1-1-.82,3.91,3.91,0,0,1,1.17-3.3c1.23-1.09.93-2.09.12-3.2a4.15,4.15,0,0,1-.62-1.2.86.86,0,0,1,.3-.75.91.91,0,0,1,1.2.21A3.22,3.22,0,0,1,809.87,203.72Z"
/>
<path
    class="cls-3"
    d="M799.38,167.29c.09.56-1.22,2.05-1.72,1.92-.24-.06-.58-.26-.63-.46a11.51,11.51,0,0,0-2-4.06c-.58-.83-.29-1.54.78-2.2a2.32,2.32,0,0,1,.86-.13,5.31,5.31,0,0,0,2.64,4.5C799.36,166.91,799.34,167.14,799.38,167.29Z"
/>
<path
    class="cls-3"
    d="M811.48,189.47c1,0,1.79.24,2,1.38s.48,2.36.65,3.55c.09.62-.07,1.21-.89,1.25a1.17,1.17,0,0,1-1.32-1c-.31-1.44-.19-3-1.46-4.15C810.08,190.21,810.79,189.46,811.48,189.47Z"
/>
<path
    class="cls-3"
    d="M788.28,195.57c.15,0,.35,0,.43.09,1.37,1.41,2.73,2.83,4,4.28a.88.88,0,0,1,0,.83c-.32.26-.84.6-1.15.5-2.44-.79-3.46-2.74-3.87-5.1C787.76,196,788.11,195.78,788.28,195.57Z"
/>
<path
    class="cls-3"
    d="M793.19,230.92c-.18,1.27-.56,1.69-1.25,1.77s-1.62-.78-1.33-1.46c.89-2.06.66-4.23.87-6.35a.83.83,0,0,1,.95-.76c.21,0,.56.47.52.66C792.5,227,792.19,229.28,793.19,230.92Z"
/>
<path
    class="cls-3"
    d="M816.81,174.18c.81.12,2.2,1.5,2,2.2-.34,1.29-.39,2.72-1.39,3.76a.94.94,0,0,1-.72,0c-.39-1.59-.82-3.17-1.05-4.79C815.57,174.77,816.17,174.33,816.81,174.18Z"
/>
<path
    class="cls-3"
    d="M796.75,217c0,1.64.11,3.08.13,4.52a3.23,3.23,0,0,0,1.32,2.75c.25.19,1,.34.38.92a1.62,1.62,0,0,1-.85.18,2.83,2.83,0,0,1-2.07-.79c-.68-.63-1.31-1.27-.78-2.34a23,23,0,0,0,1.06-2.51C796.24,218.93,795.7,217.92,796.75,217Z"
/>
<path
    class="cls-3"
    d="M799.83,236.45a3.62,3.62,0,0,1-3.67-2.91,4.64,4.64,0,0,1-.06-1.82,1.55,1.55,0,0,1,.63-1.06c.53-.28.9.23.94.66A12.12,12.12,0,0,0,799.83,236.45Z"
/>
<path
    class="cls-3"
    d="M805.24,153.26c.07-1.56-1.14-2.84-.93-4.45a2.82,2.82,0,0,1,.78-2.07.94.94,0,0,1,.73,0,44,44,0,0,1,1.1,5.29c.1.9-.92,1.06-1.66,1.23Z"
/>
<path
    class="cls-3"
    d="M660,407c.15,0,.34-.1.45,0a7.62,7.62,0,0,1,3.92,4.24.94.94,0,0,1-.28.8,1.09,1.09,0,0,1-.8.26,1.81,1.81,0,0,1-.81-.42c-1.41-1.05-2-2.72-2.84-4.14C659.58,407.54,659.88,407.2,660,407Z"
/>
<path
    class="cls-3"
    d="M792.51,220.09a2.69,2.69,0,0,1-.71-.51,1.8,1.8,0,0,1-.08-2.12,11.24,11.24,0,0,0,1.75-3.14.83.83,0,0,1,.69-.4.71.71,0,0,1,.55,1q-.74,2.39-1.56,4.73C793.08,219.84,792.73,219.94,792.51,220.09Z"
/>
<path
    class="cls-3"
    d="M818.54,191.35a4.3,4.3,0,0,1,2.73,2.66c.05.4-.77,1.32-1.14,1.22a3.49,3.49,0,0,1-2.69-2.22C817.21,192.3,817.88,191.25,818.54,191.35Z"
/>
<path
    class="cls-3"
    d="M826.55,471.65a8.46,8.46,0,0,1-6.51,4.66c.08-2.29,2.51-2.42,3.56-3.85C824.27,471.54,825.47,471.59,826.55,471.65Z"
/>
<path
    class="cls-3"
    d="M795.08,191.23a7.4,7.4,0,0,1-.84,4.47c-.33.61-.76.92-1.47.65s-1.33-1.39-.83-1.82c1.17-1,1.55-2.72,3.12-3.32Z"
/>
<path
    class="cls-3"
    d="M805.2,158.87a8.09,8.09,0,0,1-1.31-.08c-.59-.13-1.25-.48-1-1.13.52-1.6.37-3.61,2.39-4.4l0,0,0,5.51Z"
/>
<path
    class="cls-3"
    d="M800.61,207.87c0,1.77-1.18,3-1.86,4.5a.64.64,0,0,1-1.06.24c-.22-.17-.49-.53-.45-.73.46-1.88.82-3.89,3.39-4Z"
/>
<path
    class="cls-3"
    d="M800.29,175.79a3.53,3.53,0,0,1-1.28-4,.85.85,0,0,1,.63-.48.81.81,0,0,1,.71.33A5.69,5.69,0,0,1,800.29,175.79Z"
/>
<path
    class="cls-3"
    d="M796.91,177.34c-.2-.22-.58-.44-.58-.66,0-1.76-1.67-3.29-.71-5.17a.46.46,0,0,1,.37-.13c1.7,1.41.58,3.36.94,5a4.71,4.71,0,0,1,0,.92Z"
/>
<path
    class="cls-3"
    d="M805.8,127.61c.53,1.65.88,2.62,1.14,3.62a1,1,0,0,1-.41,1.19c-.35.24-1.11-.35-1.18-1A6.37,6.37,0,0,1,805.8,127.61Z"
/>
<path
    class="cls-3"
    d="M806.19,138.18c0,.29-.07.73-.16,1.16s-.33.49-.66.31a1.69,1.69,0,0,1-.36-.23,2.06,2.06,0,0,1-.31-2.46,1.33,1.33,0,0,1,.64-.55c.66-.24.68.34.78.73A7,7,0,0,1,806.19,138.18Z"
/>
<path
    class="cls-3"
    d="M800,153.4a1.2,1.2,0,0,1,1.45,1.21c.05.63-.32,1.21-1,1.1a1.39,1.39,0,0,1-1.28-1.49C799.14,153.72,799.48,153.46,800,153.4Z"
/>
<path
    class="cls-3"
    d="M808,143.63a4.46,4.46,0,0,1-.59.66c-.07.06-.34,0-.41-.12a4.3,4.3,0,0,1-.68-1.12c-.15-.41-.2-1,.29-1.17.27-.08.8.26,1,.56A3.75,3.75,0,0,1,808,143.63Z"
/>
<path
    class="cls-3"
    d="M648.3,418c.27.11.75.19.78.35.13.73-.4,1.06-1,1.15a.88.88,0,0,1-.72-.39C647.1,418.33,647.65,418.1,648.3,418Z"
/>
<path
    class="cls-3"
    d="M809,236.57c-.78-1.58-.78-1.58-.47-4.14.77,1.61.43,2.9.45,4.15Z"
/>
<path
    class="cls-3"
    d="M784.91,212.48a3.7,3.7,0,0,1-1.17-.34.54.54,0,0,1,0-1,.73.73,0,0,1,.7.21,5.15,5.15,0,0,1,.37,1.17Z"
/>
<path
    class="cls-3"
    d="M836,326.91c-.25-.11-.65-.17-.71-.34s.18-.49.28-.75c.25.11.65.17.71.35S836.08,326.66,836,326.91Z"
/>
<path
    class="cls-3"
    d="M721.05,114.43a5.05,5.05,0,0,1-.44,1.16.76.76,0,0,1-.72.18.57.57,0,0,1-.07-1,3.84,3.84,0,0,1,1.17-.39Z"
/>
<path
    class="cls-3"
    d="M805.29,158.79l.71.93-.5.32-.3-1.17Z"
/>
<path
    class="cls-3"
    d="M828.41,470.73c-.33.92-1.06,1-1.89.95A1.53,1.53,0,0,1,828.41,470.73Z"
/>
<path
    class="cls-3"
    d="M820.08,476.28c-.32.94-1,1.08-1.89,1A1.59,1.59,0,0,1,820.08,476.28Z"
/>
<path
    class="cls-3"
    d="M797.85,178.25a8.27,8.27,0,0,1,.87.09c.13,0,.34.18.34.25,0,.38-.32.52-.65.31a3.15,3.15,0,0,1-.57-.63Z"
/>
<path
    class="cls-3"
    d="M813.94,175.68a1,1,0,0,1-.09-.37s.27-.11.28-.09C814.36,175.55,814.29,175.71,813.94,175.68Z"
/>
<path
    class="cls-3"
    d="M660.92,402.34l-.54.36c.13-.17.25-.35.38-.53Z"
/>
<path
    class="cls-3"
    d="M796.93,177.33a1.18,1.18,0,0,1,.92.92v0l-.93-.93Z"
/>
<path
    class="cls-3"
    d="M800.63,207.89c.07-.13.17-.38.2-.37.31.08.23.21-.22.35Z"
/>
<path
    class="cls-3"
    d="M600.7,275.47c.08-1.52.15-3.05.25-4.57a.46.46,0,0,1,.66-.43c.26.1.66.33.66.48-.12,2.27,1.08,4.3.74,6.74a9.07,9.07,0,0,0,1.3,6.57,5.37,5.37,0,0,1,1,3.45c0,2.31,0,4.61,0,6.91,0,.54.09,1.4-.82,1.16a1.3,1.3,0,0,1-.75-1.52,21.82,21.82,0,0,1,.56-2.67,11.18,11.18,0,0,0,.14-4.57,1.32,1.32,0,0,0-1.61-1.22c-.72.1-1,.64-.8,1.33a12.47,12.47,0,0,1,.33,1.34,1.11,1.11,0,0,1-.49,1.18c-.37.22-1-.43-1-1.12a12.31,12.31,0,0,1,.36-4.55c.91-2.52.55-5.13.23-7.71,0-.26-.35-.48-.53-.72Z"
/>
<path
    class="cls-3"
    d="M593.35,259.64h3.39a33.89,33.89,0,0,1,.22,6.55c0,.59-.12,1.26-.88,1.39-.93.16-1.36-.5-1.66-1.2a15.46,15.46,0,0,1-1.18-6.62Z"
/>
<path
    class="cls-3"
    d="M598.59,289.09c.13-.37,0,.09-.19.46a.89.89,0,0,1-.75.19c-1.09-1.64-2.78-2.82-3.6-4.67a2.22,2.22,0,0,1,.24-2.16,1.42,1.42,0,0,1,1.47-.85c.39.06,1,.45,1,.74C597,284.8,599.29,286,598.59,289.09Z"
/>
<path
    class="cls-3"
    d="M590.57,261c2.14,2.09,1.68,4.26,2.29,6.06,0,.16-.28.63-.47.66a1.83,1.83,0,0,1-1.28-.17,1.75,1.75,0,0,1-.52-1.2C590.53,264.78,590.57,263.26,590.57,261Z"
/>
<path
    class="cls-3"
    d="M600.82,275.55c-.34,1.91.28,4-.84,5.76-.22.34-.57.82-.87.82-.71,0-1-.65-1.06-1.25s-.25-1.74.41-2.11c1.35-.77,1-2.57,2.24-3.3Z"
/>
<path
    class="cls-3"
    d="M588,262a5,5,0,0,1,1.42,5C588.14,265.16,588.14,265.16,588,262Z"
/>
<path
    class="cls-3"
    d="M911.71,175.32H964.4l3.69,0a3,3,0,0,1,2.39,1.2c1.79,2.3,3.56,4.63,5.35,6.93a2.24,2.24,0,0,1,.19,3c-1.8,2.29-3.7,4.51-5.56,6.76a4.66,4.66,0,0,1-4,1.82c-1.23-.07-2.46,0-3.7,0H859.65c-.3,0-.62,0-.92,0-3.48.37-6.29-.37-8.07-3.85-1-1.88-2.59-3.42-3.94-5.09a2,2,0,0,1,.19-2.88c1.69-2,3.41-4,4.93-6.09a4.09,4.09,0,0,1,3.94-1.81c1.08.07,2.16,0,3.24,0Zm-27.78,7.56c-.13-.77-.32-1.54-1.25-1.6a2.54,2.54,0,0,0-1.7.3,5.61,5.61,0,0,0-.36,7,2,2,0,0,0,2.06.58c.9-.18,1.12-.88,1.25-1.64,1.07-.57,2.05-1.29,3.42-1,1.61.34,1.12,2.06,2,2.81a1.85,1.85,0,0,0,.56.14,7.29,7.29,0,0,0,.39-1.14c.15-.86-.19-2.11.93-2.31a3.93,3.93,0,0,1,3.34,1.07c.38.36.38,1.12.56,1.7.14.42.27,1,.85.77a1.68,1.68,0,0,0,.66-1c.15-.59.1-1.22.25-1.81a1,1,0,0,1,.6-.58,3.64,3.64,0,0,1,3,1.56c.29.63,0,1.87.89,1.82,1.33-.06.72-1.39.88-2.18a25.07,25.07,0,0,0,.44-2.71,2.44,2.44,0,0,0-.18-1.29c-1.15-2.09-2.73-2.62-4.88-1.44-.93.51-1.58.79-2.42,0a2.17,2.17,0,0,0-3.26,0c-.61.52-1.28,1-2,.27-1.75-1.61-3.26-1.18-4.76.4C885,182.83,884.38,182.78,883.93,182.88Zm57.16-2.49a5.43,5.43,0,0,0-2.5,3.15c-.24.87-.83,1.3-1.71.92s-1.85-.54-1.55-1.85a7.63,7.63,0,0,0,.14-1.35.45.45,0,0,0-.2-.37c-.26-.1-.72-.25-.79-.16a9.59,9.59,0,0,0-2.26,5.42,3.73,3.73,0,0,0,1.85,3.48,2.28,2.28,0,0,0,2.95-.36c1.17-1,1.91.07,2.84.46,1.37.57,2.51.08,3.49-1.35.79-1.15.91-2.57-.19-3.29C941.55,184.05,941.07,182.61,941.09,180.39Zm-26.19,2.88a18.16,18.16,0,0,1-1,4.75,3,3,0,0,0,0,1.32.46.46,0,0,0,.3.31.52.52,0,0,0,.44,0,3.65,3.65,0,0,0,1.12-2.42c.42-1.76.62-3.58.91-5.38-1.7-1.31-3.48-.42-5.26-.27a28.05,28.05,0,0,1-3.63-.3,1.38,1.38,0,0,0-1.54,1.36,5.17,5.17,0,0,0,.26,3.16c.46.78,1.36.52,2.06.73s.81.78.38,1.38c-.31.43-1.1.49-1,1.27a2.52,2.52,0,0,0,3.18-1.11,2.47,2.47,0,0,0-.24-3,3.72,3.72,0,0,1-.55-.72.92.92,0,0,1,.68-1.38A5.68,5.68,0,0,1,914.9,183.27Zm13.53,1.8c.2,1.34-.17,2.44.41,3.44a.69.69,0,0,0,.35.21c.14,0,.4.07.43,0,1.16-2.22,1.81-4.52,1-7-.16-.46-1.18-.51-1.61-.15C927.65,182.69,928.17,184,928.43,185.07Zm44.66.62c.18-1.41-.25-1.61-.7-1.66-.65-.07-1.21.16-1.26.92s.25,1.23,1,1.15S973.12,185.53,973.09,185.69Z"
/>
<path
    class="cls-3"
    d="M632.14,385.05a2.28,2.28,0,0,1,1.93,1.59c.32.77,1.08,1.58.1,2.38-.69.57-1.72,0-2.36-1.35a1.78,1.78,0,0,1-.21-1.7C631.81,385.58,632.05,385.21,632.14,385.05Z"
/>
<path
    class="cls-3"
    d="M271.19,882.63c.75.11,1.65,0,2.22.36,1.66,1.09,3.08,2.52,5.11,3,.51.12,1,.75,1.31,1.25.5.74.67,1.86,1.33,2.3.93.63,1.56-.65,2.39-1,.25-.09.72-.13.85,0,1.18,1.36,2.14.46,3.14-.24.37-.27.88-.4,1.17-.73,2.8-3.23,6.39-2.42,9.87-1.88a12.79,12.79,0,0,1,3.88,1.43,7.09,7.09,0,0,0,6.22.38c1-.39,2.11-.44,3.13-.76a7.13,7.13,0,0,1,4.54-.1c3.44,1.15,6.22.3,8.78-2.29,2.91-2.93,6.26-5.42,9-8.56a6.58,6.58,0,0,1,4.08-2.27c-.55,2.25-.88,4.2-1.51,6a18.21,18.21,0,0,0-.61,8.68,12.61,12.61,0,0,1-.54,6.26,9.6,9.6,0,0,0,.44,7.62c.82,1.65,1.35,3.44,2.16,5.09s.51,3.32.68,5,.9,2.52,2.6,2.66c1.38.11,2.77.06,4.16.07,2.3,0,4.59-.19,6.87.6a8.55,8.55,0,0,0,3.19,0c.45,0,.94-.49,1.31-.39,2.69.74,5-.48,7.14-1.61a5.39,5.39,0,0,1,1.58,4.37c0,2.48,1.06,4,3.67,4.52,1.73.33,2.24,1.45,1.53,3-.87,2-2,3.82-3,5.81.73,1.75,1.22,3.74,3.61,4.28,1,.22,1.37,1.17,1.76,2,1.14,2.51,3.23,4.5,3.88,7.3.15.64,1.41.77,1.05,1.8-2,.35-.94,1.3-.48,2.22a.73.73,0,0,1-.77,1.13c-.31,0-.71.09-.91-.07-2.43-2-5.56-1.45-8.3-2.32a8.78,8.78,0,0,0-3.2-.18,3.87,3.87,0,0,0-3.63,2.37c-.7,1.63-2.1,2.12-3.84,1.54s-3.22-1-4.84-1.53a11.43,11.43,0,0,0-7.69-.22,15,15,0,0,1-9.9.12c-2.61-.76-5.19-.51-7.79-.56a1.71,1.71,0,0,0-1.88,1.64c-.21,1.92-1.52,2-3,2-2.2,0-4.2-.88-6.28-1.38a13.72,13.72,0,0,0-8.17.28c-.89.33-1.74.58-2.08,1.61-.29.87-.89,1.08-1.79.89a18.77,18.77,0,0,0-3.64-.45c-1.6,0-3.56.51-4,1.84-.88,2.57-3.22,3.19-5,4.45a75.94,75.94,0,0,0-7.53,6.78,76.28,76.28,0,0,1-7.22,6.44,16.71,16.71,0,0,0-6.16,7.35,1.79,1.79,0,0,1-.54.73,1.29,1.29,0,0,1-.74.12.49.49,0,0,1-.16-.39,4.91,4.91,0,0,1,.34-1.33c2.38-4.72,3.23-9.86,4.15-15,.38-2.11,1.06-4.18.8-6.37-.05-.41-.19-1-.47-1.17-2.73-1.27-4.78-4.54-8.53-2.91a1.77,1.77,0,0,1-1.32-.22c-2.8-1.52-5.69-1.08-8.45-.11-1.83.65-3.07.15-4.7-.67-2.26-1.13-4.43-2.8-7.28-2.49-1.11.12-1.44-.74-.95-1.94.23-.57.5-1.13.77-1.68,1-2.11,2-4-.14-6.28-1-1.07-1-3.15-1.4-4.79-.46-1.86-.34-3.82-1.55-5.56-.78-1.14.11-2.4,1.51-2.68,4.13-.82,4.33-1.15,2.73-5a6.66,6.66,0,0,1-.74-2.64,6.65,6.65,0,0,0-1.14-3.42c-1.37-2.54-.63-3.8,2.17-3.85,3.24-.05,6.48-.05,9.71.06a11.3,11.3,0,0,0,9.44-3.88c1.62-1.85,3.48-3.5,5.2-5.26.76-.77,1.47-1.58,2.15-2.42,2.09-2.57,2.88-5.36,1.41-8.56a12.45,12.45,0,0,1-.73-2.66.88.88,0,0,1,.69-1c1.06-.21,2.13-.27,3.2-.42.39,0,.56-.32.41-.65a1.75,1.75,0,0,0-.53-.69c-1.24-.79-2.68.17-4.21-.42v-4.54Z"
/>
<path
    class="cls-3"
    d="M265.6,861.29c-.76-.18-1.55-.39-1.64-1.34a8.41,8.41,0,0,0-1-4,1.81,1.81,0,0,0-2.35-.87c-1.61.6-3.31,1.33-3.92,3a3.18,3.18,0,0,1-3.39,2.36c-2.16.08-2.37.43-2.46,2.45-.08,1.54,0,3.09-.15,4.62a6.56,6.56,0,0,1-.66,1.71c-.26.63-.78,1.12-1.39.9a2.2,2.2,0,0,1-1.22-1.25c-.46-1.49-.78-3.29.22-4.46,1.95-2.24.44-3.57-.86-5.13-1.55.52-2.21,1.83-2.87,3.18a.85.85,0,0,1-.79.19,1,1,0,0,1-.42-.75,5,5,0,0,1,1.94-4c1.84-1.45,1.12-3.34,1.24-5.07a1.53,1.53,0,0,0-2-1.34,10.25,10.25,0,0,1-5,.58,4.88,4.88,0,0,1-1.74-.53,1.37,1.37,0,0,1-.83-1.51c.33-1.36.84-2.91,2.32-3.21,2.36-.47,4.68-1.9,7.18-.85,1.16.49,2,.07,3.06-.31,2.53-.93,4.29-3,6.48-4.39a2.72,2.72,0,0,0,1-2.46c0-2,.06-4,0-6a8.31,8.31,0,0,1,1.53-5.67c.81-1,1.43-2,.7-3.35a.6.6,0,0,1,0-.45c1.9-2.77.15-5.27-.56-7.85-.12-.44-.41-.84-.51-1.28-.63-2.87,1.2-5,4.34-4.77,2.29.14,4.6-.23,6.87.59A1.75,1.75,0,0,0,271,808.4c.15-.91.09-1.85.2-2.77.19-1.55,1-1.94,2.56-.87,1,.71,1.44.49,2.31-.15,1.45-1.07,2-.8,2.56,1,.41,1.31.66,2.68,1.07,4a1.57,1.57,0,0,0,.88.94c.56.17.72-.38.72-.83,0-1.61.32-3.08,1.89-4a1.22,1.22,0,0,0,.36-.27c.81-.93,3.45-8.56,3.36-9.89,0-.59-.14-1.32-.91-1.4a1.83,1.83,0,0,0-1.23.39,15.38,15.38,0,0,0-3.4,3.75c-.49.79-1,1.55-1.55,2.3-1.09,1.5-2.45,2.21-2.84,1.51-.62-1.09,0-2,.44-3A13.32,13.32,0,0,1,283.6,792a4.21,4.21,0,0,0,2.56-4c0-1.47,1.07-2,2.15-1s2.35.27,3.42.86,1.74,1.22,1.55,2.5c-.21,1.5-.8,2.92-.09,4.48.4.9-.34,1.77-.73,2.59a6.42,6.42,0,0,0-.94,3.05c0,.73.36.94,1,1.21,1.31.51,1.47,1.06.88,2a8.26,8.26,0,0,1-1.18,1.4,2.12,2.12,0,0,0-.63,2.52c1,1.82-.07,2.84-1.2,3.91a10.11,10.11,0,0,0-1.33,1.28c-.71,1-1.27,2.2-2.76,1-1.5,1-3.71,1.32-4,3.44-.3,2.49-1.88,4.14-3.22,6-.55.74-1.19,1.4-1.81,2.12-.69.16-.64-2.24-1.7-.58a4.81,4.81,0,0,0-.65,2.63,37.55,37.55,0,0,1-1.69,11.34c-.33,1.24-.43,2.41.76,3.35a2.56,2.56,0,0,1,.73,3c-.85,2.1-.3,4.56-2,6.5-.68.77-.57,2.29-.66,3.48s-1.59,1.69-1.48,2.74c.19,2,.72,3.9,1.09,5.85.09.43.09.88.14,1.35-3.44-.43-4.75-1.19-6.2-3.54l.37-.45ZM271.3,843c-.25.11-.61.16-.73.36s.1.49.17.74a2.61,2.61,0,0,0,.74-.39C271.75,843.48,271.65,843.2,271.3,843Z"
/>
<path
    class="cls-3"
    d="M203.5,931.61c0,1.69.08,3.38,0,5.07a2.34,2.34,0,0,1-2.34,2.37,29.05,29.05,0,0,1-3.23,0,2.21,2.21,0,0,1-.87-.23c-1.59-.78-3.87-4.83-3.44-6.69,1.42-6.09.32-12.25.76-18.36.07-.92,0-1.85,0-2.77,0-.72-.12-1.69.88-1.85.71-.12.85.68,1.12,1.2.65,1.29,2.06,1.27,3.16,1.6a3.33,3.33,0,0,1,2.6,2.83,8,8,0,0,1,.46,1.77C202.24,921.58,203.83,926.53,203.5,931.61Z"
/>
<path
    class="cls-3"
    d="M327.58,847.32c0,2.21-.41,2.92-2.56,2.84s-3.83.52-5,2.46a5.49,5.49,0,0,1-1.3,1.29c-1.19,1-2.33,1-3.29.1-.81-.78-.91-1.63-.07-2.89a24.67,24.67,0,0,0,2.95-5.7c1-2.79,1.58-5.61.38-8.52a2.63,2.63,0,0,1-.09-1.34,1,1,0,0,1,.61-.59,1.12,1.12,0,0,1,.84.1,5.4,5.4,0,0,1,1.76,2.63c1.24,2.65,2.58,5.22,4.87,7.13A2.9,2.9,0,0,1,327.58,847.32Zm-1.07.21c-.11-.24-.16-.6-.34-.71s-.49.11-.74.17a2.8,2.8,0,0,0,.38.73C326.08,848,326.35,847.88,326.51,847.53Z"
/>
<path
    class="cls-3"
    d="M204.88,921.64c-.29-1.09-.57-2.07-.79-3.06a4,4,0,0,1,2.7-5.07,9.28,9.28,0,0,1,3.13-.66c3.12,0,6.32-1.18,9.36.44a5.22,5.22,0,0,1,1.42,1.09,1.48,1.48,0,0,1,.15,1.73,1.23,1.23,0,0,1-1.6.53c-1.11-.5-2.16-1.14-3.22-1.75-2.4-1.37-4.62-.47-5,2.36a3.36,3.36,0,0,1-2.82,3.12,2.79,2.79,0,0,1-.91,0A2.37,2.37,0,0,0,204.88,921.64Z"
/>
<path
    class="cls-3"
    d="M378.28,899.29c-.6-.35-1-.43-1.08-.65a1,1,0,0,1,0-.85c1.53-2.36,4-3.22,6.53-3.8.29-.06.87.4,1,.74a2.46,2.46,0,0,1-1.47,3.36C381.52,898.46,379.63,898.3,378.28,899.29Z"
/>
<path
    class="cls-3"
    d="M249.33,839.24c-.24.26-.39.59-.62.66-2,.6-4.07,1.18-6.14,1.67a1.46,1.46,0,0,1-1.11-.6c-.33-.44.06-.82.46-1.05a3.74,3.74,0,0,1,1.24-.56c1.93-.28,3.88-.51,5.82-.73.11,0,.29.14.35.26S249.33,839.18,249.33,839.24Z"
/>
<path
    class="cls-3"
    d="M347.56,849.21a5.55,5.55,0,0,1-1.2-.18,1.17,1.17,0,0,1-.56-.58c-.18-.33,0-.56.33-.71a3.88,3.88,0,0,1,2.6-.1,1,1,0,0,1,.54.59c.18.59-.31.74-.73.87A5.93,5.93,0,0,1,347.56,849.21Z"
/>
<path
    class="cls-3"
    d="M274.77,867.49c-.14-.2-.42-.42-.4-.61a.52.52,0,0,1,.84-.43.74.74,0,0,1,.23.7C275.37,867.33,275,867.38,274.77,867.49Z"
/>
<path
    class="cls-3"
    d="M271.2,882.61l-.38-.38c.08,0,.19,0,.24.08a2.37,2.37,0,0,1,.13.32Z"
/>
<path
    class="cls-2"
    d="M883.93,182.88c.45-.1,1.05,0,1.31-.32,1.5-1.58,3-2,4.76-.4.74.68,1.41.25,2-.27a2.17,2.17,0,0,1,3.26,0c.84.79,1.49.51,2.42,0,2.15-1.18,3.73-.65,4.88,1.44a2.44,2.44,0,0,1,.18,1.29,25.07,25.07,0,0,1-.44,2.71c-.16.79.45,2.12-.88,2.18-.9.05-.6-1.19-.89-1.82a3.64,3.64,0,0,0-3-1.56,1,1,0,0,0-.6.58c-.15.59-.1,1.22-.25,1.81a1.68,1.68,0,0,1-.66,1c-.58.24-.71-.35-.85-.77-.18-.58-.18-1.34-.56-1.7a3.93,3.93,0,0,0-3.34-1.07c-1.12.2-.78,1.45-.93,2.31a7.29,7.29,0,0,1-.39,1.14,1.85,1.85,0,0,1-.56-.14c-.92-.75-.43-2.47-2-2.81-1.37-.29-2.35.43-3.42,1l0,0V182.9Zm15.42,1.41c.24-.14.57-.23.69-.43a.73.73,0,0,0-.17-.69.6.6,0,0,0-.89.5C899,183.86,899.22,184.08,899.35,184.29Z"
/>
<path
    class="cls-2"
    d="M941.09,180.39c0,2.22.46,3.66,2.07,4.7,1.1.72,1,2.14.19,3.29-1,1.43-2.12,1.92-3.49,1.35-.93-.39-1.67-1.48-2.84-.46a2.28,2.28,0,0,1-2.95.36,3.73,3.73,0,0,1-1.85-3.48,9.59,9.59,0,0,1,2.26-5.42c.07-.09.53.06.79.16a.45.45,0,0,1,.2.37,7.63,7.63,0,0,1-.14,1.35c-.3,1.31.74,1.51,1.55,1.85s1.47-.05,1.71-.92A5.43,5.43,0,0,1,941.09,180.39Z"
/>
<path
    class="cls-2"
    d="M914.9,183.27a5.68,5.68,0,0,0-3.86-.34.92.92,0,0,0-.68,1.38,3.72,3.72,0,0,0,.55.72,2.47,2.47,0,0,1,.24,3,2.52,2.52,0,0,1-3.18,1.11c-.08-.78.71-.84,1-1.27.43-.6.39-1.16-.38-1.38s-1.6,0-2.06-.73a5.17,5.17,0,0,1-.26-3.16,1.38,1.38,0,0,1,1.54-1.36,28.05,28.05,0,0,0,3.63.3c1.78-.15,3.56-1,5.26.27-.29,1.8-.49,3.62-.91,5.38a3.65,3.65,0,0,1-1.12,2.42.52.52,0,0,1-.44,0,.46.46,0,0,1-.3-.31,3,3,0,0,1,0-1.32A18.16,18.16,0,0,0,914.9,183.27Z"
/>
<path
    class="cls-2"
    d="M883.93,187.53c-.13.76-.35,1.46-1.25,1.64a2,2,0,0,1-2.06-.58,5.61,5.61,0,0,1,.36-7,2.54,2.54,0,0,1,1.7-.3c.93.06,1.12.83,1.25,1.6l0,0c-2.38.74-2.94,1.35-2.7,3.17s1.48,1.55,2.7,1.44Z"
/>
<path
    class="cls-2"
    d="M928.43,185.07c-.26-1-.78-2.38.53-3.5.43-.36,1.45-.31,1.61.15.86,2.49.21,4.79-1,7,0,.06-.29,0-.43,0a.69.69,0,0,1-.35-.21C928.26,187.51,928.63,186.41,928.43,185.07Z"
/>
<path
    class="cls-2"
    d="M973.09,185.69c0-.16-.36.34-1,.41s-1-.49-1-1.15.61-1,1.26-.92C972.84,184.08,973.27,184.28,973.09,185.69Z"
/>
<path
    class="cls-2"
    d="M271.3,843c.35.16.45.44.18.71a2.61,2.61,0,0,1-.74.39c-.07-.25-.26-.58-.17-.74S271.05,843.15,271.3,843Z"
/>
<path
    class="cls-2"
    d="M265.6,861.29l.46-.37-.37.45Z"
/>
<path
    class="cls-2"
    d="M326.51,847.53c-.16.35-.43.45-.7.19a2.8,2.8,0,0,1-.38-.73c.25-.06.57-.26.74-.17S326.4,847.29,326.51,847.53Z"
/>
<path
    class="cls-3"
    d="M883.91,187.51c-1.22.11-2.48.23-2.7-1.44s.32-2.43,2.7-3.17Z"
/>
<path
    class="cls-3"
    d="M899.35,184.29c-.13-.21-.39-.43-.37-.62a.6.6,0,0,1,.89-.5.73.73,0,0,1,.17.69C899.92,184.06,899.59,184.15,899.35,184.29Z"
/>
</svg>